<?xml version="1.0" standalone="no"?>
<!DOCTYPE svg PUBLIC "-//W3C//DTD SVG 1.1//EN" "http://www.w3.org/Graphics/SVG/1.1/DTD/svg11.dtd" >
<svg xmlns="http://www.w3.org/2000/svg">
<metadata>
This is a custom SVG font generated by IcoMoon.
0
</metadata>
<defs>
<font id="Rocket" horiz-adv-x="512" >
<font-face units-per-em="512" ascent="480" descent="-32" />
<missing-glyph horiz-adv-x="512" />
<glyph unicode="&#x21;" d="M 412.254,335.898c0.00,22.39-22.285,22.39-22.285,22.39L 122.51,358.289 c0.00,0.00-22.285,0.00-22.285-22.39l0.00-22.39 l 312.031,0.00 L 412.255,335.898 z M 345.395,403.069L 167.085,403.069 
		c0.00,0.00-22.285,0.00-22.285-22.39l 222.882,0.00 C 367.681,403.069, 345.395,403.069, 345.395,403.069z M 456.829,313.508
		c-13.188,13.252-13.188,13.252-13.188,13.252l0.00-35.643 L 68.84,291.118 l0.00,35.643 c0.00,0.00,0.00,0.00-13.188-13.252S 33.009,296.698, 38.319,268.71
		c 5.284-27.879, 30.86-180.802, 34.663-201.499c 4.174-22.684, 27.243-22.387, 27.243-22.387l 312.031,0.00 c0.00,0.00, 23.066-0.297, 27.239,22.387
		c 3.803,20.698, 29.373,173.621, 34.667,201.499C 479.469,296.698, 470.019,300.256, 456.829,313.508z M 345.384,192.60
		c0.00,0.00,0.00-22.39-22.285-22.39L 189.377,170.21 c-22.285,0.00-22.285,22.39-22.285,22.39l0.00,44.781 l 31.203,0.00 l0.00-35.825 l 115.828,0.00 l0.00,35.825 l 31.263,0.00 L 345.384,192.60 z" />
<glyph unicode="&#x22;" d="M 305.403,50.494c0.00-11.76-9.524-21.253-21.253-21.253c-11.737,0.00-21.248,9.493-21.248,21.253L 262.901,69.037 l 42.501,0.00 L 305.403,50.494 zM 249.323,0.00L 188.879,0.00L 188.968,29.828L 168.714,29.828L 168.683,0.00L 108.122,0.00L 108.122,69.037L 249.323,69.037 zM 94.081,50.494c0.00-11.76-9.511-21.253-21.267-21.253c-11.711,0.00-21.24,9.493-21.24,21.253L 51.576,69.037 l 42.507,0.00 L 94.081,50.494 zM 178.507,448.00c 30.329,0.00, 54.898-24.587, 54.898-54.925c0.00-30.329-24.568-54.912-54.898-54.912c-30.348,0.00-54.929,24.587-54.929,54.912
	C 123.577,423.413, 148.16,448.00, 178.507,448.00zM 334.68,90.443L 22.312,90.443 L 22.312,272.989 l 312.368,0.00 L 334.68,90.443 z M 285.888,257.913L 72.287,257.913 l0.00-152.643 l 213.602,0.00 L 285.888,257.913 zM 188.879,167.687l0.00-13.40 l 39.115,0.00 c 1.627,0.00, 4.023-1.46, 4.023-3.992c0.00-22.821-2.867-33.569-14.879-33.569
	c-12.463,0.00-15.026,26.992-28.264,28.775c0.00,0.00,0.00-20.227,0.00-25.836l-20.908,0.00 c0.00,5.609,0.00,25.876,0.00,25.876c-13.884-1.053-16.124-28.82-29.075-28.82
	c-12.015,0.00-14.228,10.748-14.228,33.569c0.00,2.527, 2.397,3.992, 4.023,3.992l 39.281,0.00 L 167.965,167.687 l-40.669,0.00 c-2.365,0.00-4.252,1.887-4.252,4.22
	s 1.881,4.216, 4.252,4.216l 40.669,0.00 l0.00,13.40 L 122.189,189.521 c-2.335,0.00-4.229,1.887-4.229,4.233c0.00,2.325, 1.891,4.239, 4.229,4.239l 45.776,0.00 l0.00,13.381 
	l-42.968,0.00 c-2.335,0.00-4.233,1.887-4.233,4.233c0.00,2.325, 1.90,4.252, 4.233,4.252l 42.968,0.00 l0.00,13.368 L 134.312,233.229 c-2.352,0.00-4.233,1.913-4.233,4.22
	c0.00,2.365, 1.881,4.265, 4.233,4.265l 33.659,0.00 l0.00,7.401 l 20.908,0.00 l0.00-7.401 l 33.663,0.00 c 2.335,0.00, 4.233-1.90, 4.233-4.265c0.00-2.307-1.90-4.22-4.233-4.22
	L 188.879,233.229 l0.00-13.368 l 43.093,0.00 c 2.352,0.00, 4.252-1.931, 4.252-4.252c0.00-2.348-1.90-4.233-4.252-4.233L 188.879,211.375 l0.00-13.381 l 45.916,0.00 
	c 2.335,0.00, 4.233-1.917, 4.233-4.239c0.00-2.348-1.90-4.233-4.233-4.233L 188.879,189.521 l0.00-13.40 l 40.683,0.00 c 2.335,0.00, 4.233-1.881, 4.233-4.216
	s-1.90-4.22-4.233-4.22L 188.879,167.687 zM 242.491,324.733L 116.329,324.733 c-22.821,0.00-43.953-12.177-55.821-30.339l 235.98,0.00 C 285.36,312.556, 265.312,324.733, 242.491,324.733z" horiz-adv-x="356.99200439453125" />
<glyph unicode="&#x23;" d="M 289.543,359.657c 19.518,0.075, 35.323,15.874, 35.259,35.254C 324.87,414.537, 309.061,430.341, 289.543,430.42
	c-19.475-0.079-35.286-15.885-35.254-35.51C 254.256,375.536, 270.067,359.732, 289.543,359.657L 289.543,359.657zM 289.543,394.911M 534.348,391.916L 452.324,391.916 c-16.967,0.117-38.797-6.825-51.761-19.753L 324.551,296.147l0.00,22.252 c-0.032,47.424-69.938,46.907-70.017,0.00l0.00-90.766 
	l 0.251,0.00 L 188.775,161.621c-6.292-6.24-7.055-6.50-19.247-6.50c-0.054-0.016-40.509,0.00-40.509,0.00c-40.551,0.00-64.917-36.521-65.019-67.514
	c 0.102-30.922, 24.469-70.049, 68.764-70.022c0.00,0.00, 54.895-0.032, 71.76,0.00c 17.094-0.032, 37.673,6.464, 54.766,22.513L 469.829,249.889
	c 4.428,4.098, 6.933,5.334, 14.754,5.254c0.00,0.00, 28.944,0.086, 52.007,0.00c 24.948,0.086, 60.368,28.459, 60.271,69.255
	C 596.958,364.959, 561.272,391.943, 534.348,391.916z M 530.836,290.642L 486.342,290.642 c-18.836,0.016-27.181-2.621-38.019-13.497L 236.038,65.094
	c-8.478-8.706-19.369-12.112-33.256-11.995l-70.017,0.00 c-18.037-0.117-33.873,15.085-33.756,35.004c-0.117,20.035, 14.989,31.216, 30.511,31.263l 48.011,0.00 
	c 14.094-0.047, 23.291,3.949, 31.247,11.989l 215.802,215.802c 8.898,8.819, 17.658,9.922, 32.749,9.997l 73.763,0.00 c 18.096-0.075, 30.186-20.164, 30.266-32.259
	C 561.272,313.033, 552.693,290.658, 530.836,290.642z" horiz-adv-x="660.832763671875" />
<glyph unicode="&#x24;" d="M 235.228,33.215C 234.865,32.333, 234.68,32.129, 235.228,33.215L 235.228,33.215zM 64.863,201.647C 63.935,201.239, 63.804,201.09, 64.863,201.647L 64.863,201.647zM 64.194,202.279C 63.322,201.916, 63.163,201.777, 64.194,202.279L 64.194,202.279zM 234.596,33.837C 234.215,32.955, 234.039,32.797, 234.596,33.837L 234.596,33.837zM 481.443,426.982c-0.018,5.749-2.415,10.887-5.936,14.871l 0.167,0.204c-0.149,0.158-0.418,0.204-0.566,0.362
				c-0.167,0.158-0.251,0.409-0.418,0.622l-0.214-0.204c-4.031,3.474-9.121,5.797-14.899,5.797c0.00,0.00-131.166-48.087-251.947-135.457
				C 142.879,336.148, 74.635,293.187, 35.214,215.784C 34.127,213.574, 33.031,211.447, 32.00,209.273l 12.744-12.577c 21.698,21.94, 40.981,37.637, 71.328,37.637
				c-3.195-5.081-7.375-12.995-7.375-12.995l-6.335-13.041l 62.318-61.547l-34.313-34.74l 6.409-6.307l0.00,0.00l 7.394-7.366l 34.322,34.684l 62.234-61.538
				l 13.023,6.456c0.00,0.00, 7.812,4.245, 12.893,7.524c 0.371-30.355-15.085-49.852-36.793-71.802l 12.726-12.577c 2.127,1.087, 4.273,2.173, 6.428,3.316
				c 76.641,40.155, 118.839,108.502, 95.748,172.742C 431.99,297.832, 481.443,426.982, 481.443,426.982z" horiz-adv-x="531.0792846679688" />
<glyph unicode="&#x25;" d="M 229.095,145.112C 228.974,144.817, 228.91,144.749, 229.095,145.112L 229.095,145.112zM 171.859,201.704C 171.547,201.566, 171.50,201.512, 171.859,201.704L 171.859,201.704zM 171.632,201.913C 171.338,201.789, 171.288,201.744, 171.632,201.913L 171.632,201.913zM 228.885,145.322C 228.753,145.027, 228.697,144.974, 228.885,145.322L 228.885,145.322zM 311.814,277.41c-0.007,1.929-0.809,3.65-1.996,4.99l 0.06,0.071c-0.053,0.053-0.142,0.071-0.192,0.121
				c-0.053,0.053-0.085,0.138-0.138,0.209l-0.071-0.071c-1.356,1.165-3.069,1.946-5.008,1.946c0.00,0.00-44.07-16.155-84.645-45.511
				c-21.756,7.721-44.684-6.716-57.931-32.716c-0.366-0.745-0.731-1.46-1.08-2.188l 4.28-4.226c 7.288,7.373, 13.769,12.646, 23.965,12.646
				c-1.073-1.704-2.479-4.365-2.479-4.365l-2.131-4.383l 20.94-20.676l-11.528-11.67l 2.152-2.12l0.00,0.00l 2.486-2.472l 11.532,11.652l 20.914-20.676
				l 4.372,2.173c0.00,0.00, 2.624,1.424, 4.33,2.522c 0.124-10.193-5.068-16.748-12.366-24.121l 4.283-4.226c 0.714,0.369, 1.435,0.731, 2.159,1.111
				c 25.751,13.495, 39.925,36.455, 32.173,58.038C 295.197,234.019, 311.814,277.41, 311.814,277.41zM 255.989,448.00C 132.484,448.00, 32.00,347.516, 32.00,224.00c0.00-61.667, 25.045-117.567, 65.481-158.12l 44.919,60.438l 14.621,19.686l-50.448-12.192
	l 40.575,26.817c-10.899,18.645-17.253,40.262-17.253,63.375c0.00,69.53, 56.575,126.087, 126.097,126.087c 69.53,0.00, 126.094-56.556, 126.094-126.087
	S 325.52,97.896, 255.989,97.896c-22.367,0.00-43.356,5.931-61.60,16.191l-27.09-40.991l 13.002,50.296c-0.174,0.121-0.341,0.242-0.511,0.366
	l-19.991-14.852L 99.406,64.036c 40.419-39.584, 95.686-64.036, 156.583-64.036c 123.519,0.00, 224.007,100.47, 224.007,224.00
	C 480.00,347.516, 379.512,448.00, 255.989,448.00z" />
<glyph unicode="&#x26;" d="M 458.154,208.601 C 458.154,208.601 472.056,397.872 281.664,409.476 L 256.102,446.624 L 229.381,409.476 C 44.744,390.902 52.891,208.601 52.891,208.601 C 52.891,208.601 79.593,243.432 98.167,243.432 C 116.76,243.432 144.621,208.601 144.621,208.601 C 144.621,208.601 173.659,243.432 194.55,243.432 C 210.825,243.432 231.137,222.485 239.415,213.123 L 239.415,74.735 C 239.415,68.531 238.369,57.693 238.369,57.693 C 238.369,57.693 236.313,48.088 234.295,44.445 C 232.258,40.763 225.494,35.905 225.494,35.905 C 225.494,35.905 216.655,32.841 210.47,32.841 C 201.295,32.841 194.475,35.98 190.009,42.184 C 185.543,48.425 185.637,64.495 185.637,76.753 L 148.638,76.753 L 148.638,63.691 C 148.638,54.236 150.077,45.659 152.88,37.998 C 155.702,30.299 159.756,23.759 165.026,18.322 C 170.295,12.884 176.761,8.717 184.441,5.765 C 192.121,2.85 200.791,1.392 210.489,1.392 C 221.14,1.392 230.52,2.70 238.611,5.372 C 246.721,8.026 253.486,12.342 258.905,18.247 C 264.342,24.152 268.453,31.813 271.219,41.231 C 274.003,50.686 275.386,62.14 275.386,75.688 L 275.386,210.974 C 281.421,218.486 302.256,242.815 319.952,242.815 C 340.861,242.815 366.405,207.443 366.405,207.443 C 366.405,207.443 390.791,242.853 413.999,242.853 C 437.244,242.853 458.154,208.601 458.154,208.601 Z" />
<glyph unicode="&#x27;" d="M 146.224,213.056l 40.32,0.00 l0.00-44.80 l 138.88,0.00 l0.00,44.80 l 40.32,0.00 l0.00-44.80 l 114.24,0.00 c0.00,0.00-3.321,99.855-4.48,131.117c-1.103,29.712-11.736,48.083-44.80,48.083L 358.842,347.456 
	c-11.137,20.993-23.121,43.575-26.80,50.508C 324.626,411.94, 322.091,414.656, 305.621,414.656L 206.343,414.656 
	c-16.471,0.00-19.005-2.716-26.422-16.692c-3.679-6.934-15.659-29.515-26.80-50.508L 81.264,347.456 c-33.068,0.00-43.575-18.375-44.80-48.083
	c-1.225-29.705-4.48-131.117-4.48-131.117l 114.24,0.00 L 146.224,213.056 z M 203.344,371.746c 5.13,9.667, 6.885,11.549, 18.287,11.549l 68.705,0.00 
	c 11.399,0.00, 13.156-1.883, 18.287-11.549c 1.925-3.626, 7.13-13.444, 12.887-24.291L 190.453,347.456 
	C 196.212,358.303, 201.419,368.119, 203.344,371.746z M 365.745,101.056l-40.32,0.00 l0.00,44.80 l-138.88,0.00 l0.00-44.80 l-40.32,0.00 l0.00,44.80 l-103.04,0.00 c0.00,0.00, 2.787-40.278, 4.48-74.428
	c 0.70-14.157, 4.864-37.572, 40.306-37.572L 423.998,33.856 c 35.44,0.00, 39.519,23.418, 40.306,37.572c 1.95,35.123, 4.48,74.428, 4.48,74.428l-103.04,0.00 
	L 365.745,101.056 z" />
<glyph unicode="&#x28;" d="M 337.814,57.524L 234.559,57.524 L 184.756,139.299l-35.653,0.00 l0.00-81.776 L 53.714,57.524 L 53.714,413.999 l 135.23,0.00 c 95.934,0.00, 149.942-60.799, 149.942-139.976
	c0.00-51.362-22.543-92.236-64.465-115.313L 337.814,57.524z M 184.226,215.325c 42.997,0.00, 58.707,24.117, 58.707,58.698
	c0.00,34.606-15.708,59.264-58.707,59.264l-35.116,0.00 l0.00-117.963 L 184.226,215.325 z M 956.148,52.822c-100.118,0.00-185.572,75.483-185.572,182.918
	c0.00,107.443, 84.915,182.436, 180.343,182.436c 77.034,0.00, 124.211-32.509, 154.098-76.532l-71.833-48.756c-13.616,20.96-35.621,42.456-80.707,42.456
	c-52.41,0.00-84.385-43.504-84.385-99.608c0.00-56.10, 32.999-100.114, 87.545-100.114c 46.134,0.00, 68.669,20.957, 83.868,49.266l 73.387-47.154
	C 1077.758,78.513, 1028.50,52.822, 956.148,52.822z M 1239.715,204.334l0.00-146.778 l-95.42,0.00 L 1144.294,413.999 l 95.42,0.00 l0.00-123.172 l 98.564,123.172l 123.702,0.00 
	l-147.831-171.903c 0.51,0.00, 141.02-184.548, 141.02-184.548l-105.881,0.00 L 1239.715,204.334z M 1490.755,413.999l 250.037,0.00 l0.00-80.201 l-154.637,0.00 l0.00-59.26 l 128.954,0.00 
	l0.00-76.045 l-128.954,0.00 l0.00-60.75 l 161.985,0.00 l0.00-80.222 l-257.389,0.00 L 1490.751,413.999 L 1490.755,413.999z M 1864.477,333.798L 1770.117,333.798 L 1770.117,413.999 l 284.104,0.00 l0.00-80.201 l-94.352,0.00 l0.00-276.249 
	l-95.392,0.00 L 1864.477,333.798 z M 530.949,165.477C 530.829,165.209, 530.782,165.13, 530.949,165.477L 530.949,165.477z M 480.467,215.376
	C 480.201,215.245, 480.149,215.205, 480.467,215.376L 480.467,215.376z M 480.276,215.54C 480.005,215.448, 479.954,215.397, 480.276,215.54
	L 480.276,215.54z M 530.754,165.64C 530.638,165.377, 530.582,165.326, 530.754,165.64L 530.754,165.64z M 603.882,282.12
	c0.00,1.702-0.685,3.235-1.758,4.423l 0.056,0.051c-0.024,0.047-0.123,0.076-0.147,0.092c-0.047,0.047-0.10,0.151-0.123,0.196
	l-0.072-0.072c-1.219,1.02-2.702,1.705-4.423,1.705c0.00,0.00-38.881-14.25-74.63-40.124c-19.187,6.81-39.423-5.91-51.095-28.867
	c-0.343-0.634-0.653-1.291-0.949-1.917l 3.766-3.718c 6.416,6.512, 12.111,11.154, 21.109,11.154c-0.949-1.507-2.188-3.841-2.188-3.841
	l-1.877-3.861l 18.455-18.251l-10.142-10.281l 1.877-1.869l0.00,0.00l 2.207-2.192l 10.166,10.285l 18.43-18.236l 3.869,1.921c0.00,0.00, 2.311,1.255, 3.818,2.211
	c 0.096-9.01-4.475-14.769-10.891-21.279l 3.766-3.722c 0.606,0.339, 1.264,0.653, 1.897,0.996c 22.71,11.895, 35.191,32.127, 28.381,51.171
	C 589.241,243.869, 603.882,282.12, 603.882,282.12z M 554.66,432.557c-108.897,0.00-197.51-88.633-197.51-197.538
	c0.00-54.378, 22.081-103.693, 57.73-139.442l 39.634,53.283l 12.863,17.391l-44.476-10.751l 35.797,23.667c-9.636,16.438-15.231,35.502-15.231,55.881
	c0.00,61.305, 49.903,111.18, 111.18,111.18c 61.329,0.00, 111.208-49.875, 111.208-111.18c0.00-61.309-49.88-111.20-111.208-111.20
	c-19.726,0.00-38.20,5.248-54.303,14.274l-23.854-36.14l 11.453,44.353c-0.143,0.10-0.295,0.227-0.466,0.343l-17.629-13.111l-53.255-39.562
	c 35.646-34.925, 84.381-56.467, 138.075-56.467c 108.921,0.00, 197.559,88.614, 197.559,197.531C 752.218,343.939, 663.58,432.557, 554.66,432.557z" horiz-adv-x="2105.57421875" />
<glyph unicode="&#x29;" d="M 567.482,224.169 C 567.482,243.783 560.853,261.85 549.839,276.336 C 551.757,283.484 552.789,290.999 552.789,298.783 C 552.789,337.594 527.059,370.387 491.712,381.097 C 478.266,411.116 448.156,432.075 413.328,432.075 C 406.361,432.075 399.70,431.164 393.253,429.612 C 377.862,443.877 357.332,452.67 334.795,452.67 C 317.246,452.67 300.946,447.411 287.323,438.352 C 275.248,444.858 261.497,448.51 246.835,448.51 C 217.24,448.51 191.113,433.602 175.568,410.881 C 173.528,411.004 171.52,411.187 169.331,411.187 C 128.087,411.187 93.81,382.233 85.323,343.533 C 53.928,330.146 32.00,299.031 32.00,262.767 C 32.00,214.251 71.267,174.888 119.851,174.894 C 137.517,174.894 154.035,180.158 167.723,189.159 C 181.469,179.826 198.074,174.381 215.993,174.381 C 233.849,174.381 250.46,179.917 264.297,189.314 C 274.001,178.454 287.322,170.149 300.099,165.191 C 326.869,153.753 348.127,121.592 348.127,87.68 L 348.127-4.646 L 379.094-4.646 L 379.094,92.448 C 378.82,126.522 391.415,154.323 417.665,169.652 C 425.328,174.306 431.534,178.987 436.707,184.068 C 437.098,184.673 437.586,185.192 438.105,185.648 C 444.857,192.887 449.205,201.038 451.428,211.195 C 445.071,213.171 438.286,214.205 431.443,214.205 C 422.962,214.205 414.351,212.561 405.897,209.187 C 401.242,207.303 396.037,209.556 394.125,214.178 C 392.235,218.805 394.458,224.062 399.143,225.98 C 409.697,230.334 420.646,232.31 431.443,232.31 C 438.988,232.31 446.351,231.335 453.496,229.452 C 453.344,267.101 422.865,297.526 385.21,297.649 C 385.119,297.649 385.06,297.649 385.06,297.649 C 384.969,297.649 384.91,297.676 384.91,297.676 C 371.003,297.676 357.868,301.023 346.339,306.774 C 335.389,294.061 329.851,278.244 329.851,262.238 C 329.851,261.90 329.851,261.564 329.851,261.231 C 329.91,260.959 329.851,260.776 329.851,260.53 C 330.275,244.042 336.69,227.743 348.829,214.907 L 348.888,214.907 C 352.416,211.287 352.325,205.595 348.615,202.098 C 346.816,200.427 344.509,199.602 342.285,199.602 C 339.939,199.602 337.599,200.512 335.774,202.402 C 322.119,216.699 314.179,234.676 312.202,253.048 C 307.667,254.018 302.922,254.537 298.119,254.537 C 287.355,254.537 276.464,251.951 266.061,246.505 C 264.753,245.74 263.415,245.406 261.926,245.406 C 258.67,245.406 255.478,247.174 253.835,250.185 C 251.489,254.628 253.165,260.127 257.604,262.473 C 270.531,269.387 284.432,272.636 298.119,272.636 C 302.895,272.636 307.666,272.24 312.202,271.512 C 313.873,287.629 320.196,303.383 330.965,316.647 C 320.412,325.167 311.709,336.144 306.205,348.706 C 291.153,337.815 273.267,332.31 255.532,332.31 C 249.235,332.31 243.035,333.038 236.827,334.377 C 231.141,292.224 194.851,259.698 151.177,259.698 L 151.081,259.698 L 151.054,259.698 L 150.079,259.698 C 131.525,259.698 114.677,252.432 102.325,240.384 C 100.558,238.679 98.282,237.829 96.21,237.829 C 93.746,237.829 91.368,238.739 89.639,240.565 C 86.02,244.126 86.104,249.877 89.789,253.374 C 105.361,268.555 126.777,277.835 150.074,277.835 L 151.078,277.834 C 151.175,277.834 151.175,277.834 151.175,277.834 C 157.348,277.834 163.158,278.653 168.813,280.174 C 160.391,291.612 148.68,300.587 134.109,305.208 C 129.274,306.697 126.837,311.779 128.176,316.555 C 129.729,321.331 134.806,323.977 139.705,322.456 C 159.325,316.217 175.293,303.446 185.906,287.323 C 204.278,298.242 217.42,317.681 219.213,340.277 C 210.245,344.443 201.816,350.22 194.335,357.673 C 190.774,361.229 190.774,366.96 194.335,370.489 C 197.896,374.018 203.674,374.018 207.171,370.489 C 214.469,363.19 222.898,357.916 232.083,354.601 C 232.173,354.574 232.296,354.542 232.296,354.542 C 239.745,351.833 247.654,350.435 255.531,350.435 C 271.498,350.435 287.435,356.031 300.244,367.11 C 299.119,372.647 298.541,378.275 298.541,384.176 C 298.541,389.134 302.557,393.268 307.698,393.268 C 312.565,393.268 316.672,389.134 316.672,384.176 C 316.731,349.252 342.767,320.566 376.561,316.309 C 378.81,336.357 387.816,354.36 401.289,367.844 C 404.813,371.405 410.655,371.405 414.184,367.844 C 417.654,364.347 417.654,358.591 414.184,355.062 C 403.663,344.535 396.668,330.698 394.752,315.185 C 423.523,312.02 448.07,294.655 461.269,270.197 C 477.692,272.389 492.14,280.356 502.85,292.009 C 506.197,295.66 511.852,295.959 515.594,292.587 C 519.364,289.24 519.61,283.488 516.206,279.751 C 503.915,266.208 487.219,256.597 468.268,252.977 C 470.458,245.458 471.674,237.464 471.674,229.251 C 471.674,229.126 471.552,229.035 471.552,228.944 C 471.765,210.754 467.17,195.611 458.897,182.893 C 475.021,175.594 489.223,163.337 498.559,146.728 L 498.619,146.728 C 501.114,142.346 499.535,136.815 495.09,134.377 C 493.692,133.554 492.14,133.189 490.651,133.189 C 487.577,133.189 484.477,134.834 482.742,137.752 C 474.405,152.595 461.296,163.027 446.483,168.349 C 440.83,163.027 434.195,158.223 426.898,154.025 C 406.945,142.068 397.424,122.69 397.21,92.424 L 397.209-4.67 L 429.665-4.67 C 436.053,37.183 457.039,72.076 492.14,92.515 L 492.14,92.82 C 520.884,105.206 541.506,132.676 544.001,165.223 C 558.54,180.645 567.482,201.357 567.482,224.169 Z" horiz-adv-x="599.4824829101562" />
<glyph unicode="&#x2a;" d="M 267.029,143.149c 2.671-1.201, 6.084-2.836, 10.063-4.981c 7.912-4.279, 15.362-9.184, 22.418-14.556   c 21.853,20.071, 43.483,52.112, 43.483,100.384c0.00,95.415-84.547,127.509-88.064,128.804c-1.739,0.655-29.012,11.415-47.596,38.456l 82.777,0.00    c-7.06-10.277-15.38-18.216-23.09-24.107c 6.904-3.127, 19.089-9.381, 32.471-19.551c 21.858,20.075, 43.501,52.125, 43.501,100.401l-35.84,0.00    c0.00-3.275-0.184-6.42-0.452-9.497L 190.744,438.503 C 190.484,441.603, 190.22,444.703, 190.22,448.00l-35.84,0.00 c0.00-53.088, 26.168-86.549, 49.992-106.037   c 14.721-12.043, 28.524-18.74, 34.729-21.405l 12.043-5.452c 3.455-1.832, 7.639-4.296, 12.24-7.54c 8.768-6.183, 18.78-15.103, 27.028-27.256L 206.948,280.309    c 7.128,10.492, 15.577,18.556, 23.395,24.541c-6.895,3.123-19.08,9.372-32.467,19.541c-21.853-20.066-43.496-52.12-43.496-100.401   c0.00-48.304, 21.656-80.344, 43.509-100.419c 11.20-10.291, 22.427-17.413, 30.836-21.956c 0.036-0.013, 0.063-0.027, 0.095-0.04   c 7.54-4.068, 12.804-6.075, 13.624-6.38c 1.08-0.408, 12.007-4.74, 24.564-14.34c 7.831-5.985, 16.285-14.059, 23.421-24.551L 206.943,56.304    c 7.128,10.497, 15.572,18.561, 23.391,24.537c-2.455,1.107-5.541,2.576-9.144,4.489l-0.985,0.524c-5.877,3.176-13.816,7.988-22.387,14.488   c-21.836-20.066-43.443-52.107-43.443-100.343l 35.84,0.00 c0.00,3.123, 0.161,6.124, 0.395,9.072l 116.14,0.00 c 0.228-2.948, 0.399-5.949, 0.399-9.072l 35.84,0.00    c0.00,48.29-21.661,80.349-43.515,100.415c-11.187,10.268-22.40,17.387-30.818,21.943c-0.032,0.013-0.059,0.027-0.085,0.045   c-7.58,4.095-12.884,6.115-13.727,6.424c-0.269,0.099-11.437,4.408-24.403,14.359c-7.692,5.90-16.003,13.835-23.072,24.071l 82.745,0.00    C 283.058,156.984, 274.744,149.045, 267.029,143.149z M 304.495,424.167c-1.541-6.743-3.687-12.92-6.268-18.575L 199.184,405.592    C 196.585,411.264, 194.381,417.401, 192.836,424.167L 304.495,424.167 z M 192.769,23.408c 1.505,6.743, 3.62,12.916, 6.169,18.569l 99.492,0.00    c 2.549-5.653, 4.664-11.827, 6.173-18.569L 192.769,23.408 z M 190.22,223.996c0.00,3.127, 0.161,6.133, 0.399,9.076l 116.14,0.00    c 0.242-2.948, 0.395-5.959, 0.395-9.076c0.00-3.275-0.184-6.411-0.444-9.493L 190.663,214.503 C 190.403,217.58, 190.22,220.716, 190.22,223.996z    M 298.465,265.973c 2.549-5.653, 4.664-11.832, 6.169-18.565L 192.769,247.408 c 1.505,6.738, 3.62,12.916, 6.173,18.565L 298.465,265.973 z M 199.21,181.592   c-2.603,5.659-4.763,11.832-6.312,18.575l 111.601,0.00 c-1.541-6.743-3.679-12.925-6.263-18.575L 199.21,181.592 z" />
<glyph unicode="&#x2b;" d="M 381.939,99.658c 14.496,14.424, 13.288,38.964-2.68,54.849L 222.473,310.371c-15.976,15.876-40.669,17.068-55.162,2.653  c-14.496-14.412-13.304-38.961, 2.671-54.84l 156.791-155.86C 342.746,86.449, 367.43,85.247, 381.939,99.658zM 125.451,282.629l 262.505-260.96c 19.999-19.887, 52.434-19.887, 72.433,0.00c 19.995,19.878, 19.995,52.12,0.00,72.011l-262.501,260.96  c 3.201,24.765-4.682,50.672-23.812,69.691c-22.962,22.831-55.906,29.603-84.852,20.453c 16.87-16.757, 29.907-30.031, 34.014-34.103  c 14.666-14.585, 18.142-34.769, 7.769-45.079l-16.564-16.47c-10.373-10.311-30.678-6.857-45.344,7.724c-4.096,4.078-17.445,17.036-34.312,33.816  c-9.204-28.784-2.392-61.53, 20.573-84.362C 74.495,287.287, 100.546,279.452, 125.451,282.629z M 450.349,31.653  c-15.94-15.832-41.747-15.832-57.686,0.00c-15.921,15.836-15.921,41.509,0.00,57.339c 15.94,15.836, 41.747,15.836, 57.686,0.00  C 466.27,73.175, 466.27,47.492, 450.349,31.653z M 161.942,258.359c-16.668,16.573-16.668,43.437,0.00,60.011c 16.668,16.577, 43.694,16.577, 60.361,0.00  l 163.657-162.684c 16.659-16.573, 16.659-43.433,0.00-60.011c-16.685-16.568-43.698-16.568-60.384,0.00L 161.942,258.359zM 124.776,5.391L 257.157,137.001l-17.279,17.185l-123.605-122.881c-2.927-2.914-8.07-2.509-11.493,0.875  c-3.417,3.412-3.817,8.531-0.891,11.434l 123.60,122.881l-19.806,19.698L 84.087,63.304c-2.922-2.90-8.066-2.504-11.493,0.891  c-3.421,3.399-3.817,8.525-0.891,11.416l 123.60,122.89l-17.283,17.18L 45.638,84.069c-12.818-12.733-5.485-40.673, 16.371-62.393  C 83.861-0.055, 111.958-7.347, 124.776,5.391zM 322.562,247.016L 367.04,291.24L 404.015,301.091L 475.622,402.574L 445.16,432.87L 343.083,361.673L 333.165,324.912L 288.684,280.687   z" />
<glyph unicode="&#x2c;" d="M 491.52,370.099 C 474.163,362.394 455.552,357.222 435.994,354.867 C 455.962,366.822 471.296,385.766 478.49,408.32 C 459.827,397.261 439.142,389.197 417.152,384.87 C 399.514,403.661 374.40,415.386 346.598,415.386 C 293.222,415.386 249.958,372.122 249.958,318.771 C 249.958,311.194 250.803,303.821 252.467,296.755 C 172.16,300.774 100.941,339.251 53.299,397.722 C 44.954,383.462 40.166,366.848 40.166,349.133 C 40.166,315.597 57.242,286.029 83.174,268.698 C 67.328,269.21 52.429,273.536 39.398,280.781 C 39.398,280.371 39.398,279.987 39.398,279.578 C 39.398,232.755 72.73,193.715 116.915,184.806 C 108.826,182.605 100.275,181.427 91.443,181.427 C 85.222,181.427 79.181,182.016 73.267,183.142 C 85.555,144.742 121.267,116.813 163.533,116.045 C 130.458,90.112 88.806,74.675 43.52,74.675 C 35.712,74.675 28.032,75.136 20.48,76.032 C 63.232,48.614 114.022,32.614 168.627,32.614 C 346.368,32.614 443.571,179.866 443.571,307.584 C 443.571,311.757 443.494,315.93 443.29,320.077 C 462.182,333.696 478.541,350.72 491.52,370.099 Z" />
<glyph unicode="&#x2d;" d="M 256.00,437.76 C 374.058,437.76 469.76,342.058 469.76,224.00 C 469.76,105.942 374.058,10.24 256.00,10.24 C 137.942,10.24 42.24,105.942 42.24,224.00 C 42.24,342.058 137.942,437.76 256.00,437.76 Z M 342.929,262.633 C 351.146,268.578 358.315,275.993 363.949,284.431 C 356.40,281.07 348.295,278.82 339.767,277.797 C 348.474,283.007 355.131,291.268 358.293,301.087 C 350.165,296.255 341.147,292.76 331.551,290.889 C 323.869,299.083 312.936,304.183 300.823,304.183 C 277.576,304.183 258.716,285.322 258.716,262.076 C 258.716,258.759 259.095,255.552 259.808,252.479 C 224.827,254.216 193.787,270.983 173.034,296.478 C 169.405,290.266 167.334,283.029 167.334,275.302 C 167.334,260.673 174.771,247.803 186.038,240.255 C 179.157,240.477 172.656,242.37 166.978,245.51 C 166.956,245.353 166.956,245.176 166.956,244.998 C 166.956,224.601 181.495,207.59 200.734,203.715 C 197.216,202.758 193.498,202.246 189.645,202.246 C 186.951,202.246 184.301,202.513 181.741,203.002 C 187.107,186.302 202.671,174.123 221.086,173.789 C 206.657,162.477 188.509,155.753 168.782,155.753 C 165.397,155.753 162.035,155.931 158.739,156.332 C 177.354,144.352 199.51,137.405 223.268,137.405 C 300.712,137.405 343.063,201.555 343.063,257.177 C 343.063,259.003 343.018,260.829 342.929,262.633 Z" />
<glyph unicode="&#x2e;" d="M 384.00,374.298 L 384.00,454.40 L 310.861,454.40 C 250.342,454.40 206.259,402.714 206.259,339.20 L 206.259,294.912 L 128.00,294.912 L 128.00,219.622 L 206.259,219.622 L 206.259-6.40 L 292.582-6.40 L 292.582,219.648 L 384.00,219.648 L 384.00,294.912 L 292.582,294.912 L 292.582,347.699 C 292.582,362.931 302.234,374.298 310.886,374.298 L 384.00,374.298 Z" />
<glyph unicode="&#x2f;" d="M 256.00,437.76c-118.058,0.00-213.76-95.702-213.76-213.76s 95.702-213.76, 213.76-213.76s 213.76,95.702, 213.76,213.76S 374.058,437.76, 256.00,437.76z M 306.612,290.043L 274.481,290.043 
	c-3.785,0.00-8.016-5.01-8.016-11.667l0.00-23.202 l 40.169,0.00 l0.00-33.089 L 266.465,222.085 l0.00-99.332 L 228.523,122.754 l0.00,99.332 L 194.143,222.085 L 194.143,255.151 l 34.379,0.00 L 228.523,274.612 
	c0.00,27.922, 19.372,50.612, 45.958,50.612l 32.131,0.00 L 306.612,290.043 z" />
<glyph unicode="&#x30;" d="M 50.944,336.922c0.00-38.221, 12.774-65.843, 37.939-82.048c 20.608-13.286, 44.544-15.283, 56.986-15.283c 3.021,0.00, 5.427,0.128, 7.117,0.23
	c0.00,0.00-3.942-25.677, 15.104-51.098l-0.87,0.026c-32.998,0.00-140.646-6.912-140.646-95.411c0.00-90.035, 98.867-94.592, 118.682-94.592
	c 1.562,0.00, 2.458,0.026, 2.458,0.026c 0.23,0.00, 1.638-0.051, 4.045-0.051c 12.723,0.00, 45.619,1.587, 76.186,16.461
	c 39.629,19.226, 59.75,52.71, 59.75,99.456c0.00,45.184-30.618,72.064-52.992,91.725c-13.645,11.981-25.446,22.323-25.446,32.384
	c0.00,10.24, 8.602,17.946, 19.507,27.699c 17.613,15.77, 34.253,38.221, 34.253,80.666c0.00,37.325-4.838,62.362-34.662,78.234
	c 3.123,1.587, 14.106,2.739, 19.558,3.507c 16.154,2.202, 39.782,4.71, 39.782,17.894L 287.693,449.28 L 169.984,449.28 C 168.806,449.254, 50.944,444.877, 50.944,336.922z
	 M 240.973,106.189c 2.253-35.994-28.544-62.566-74.778-65.92c-46.95-3.456-85.632,17.69-87.885,53.683c-1.075,17.28, 6.502,34.202, 21.376,47.693
	c 15.104,13.645, 35.789,22.067, 58.342,23.757c 2.662,0.154, 5.299,0.282, 7.936,0.282C 209.408,165.683, 238.848,140.134, 240.973,106.189z M 210.227,361.574
	c 11.546-40.627-5.888-83.098-33.664-90.931C 173.363,269.747, 170.061,269.286, 166.733,269.286c-25.472,0.00-50.688,25.754-60.032,61.235
	C 101.478,350.464, 101.888,367.872, 107.878,384.64C 113.766,401.101, 124.339,412.262, 137.651,416.00c 3.20,0.922, 6.528,1.357, 9.856,1.357
	C 178.227,417.357, 197.99,404.608, 210.227,361.574z M 408.602,273.101l0.00,76.80 l-48.64,0.00 l0.00-76.80 l-76.80,0.00 l0.00-48.64 l 76.80,0.00 l0.00-76.80 l 48.64,0.00 l0.00,76.80 l 76.80,0.00 l0.00,48.64 L 408.602,273.101 z" />
<glyph unicode="&#x31;" d="M 235.893,284.454c-5.367,18.927-14.051,24.516-27.566,24.516c-1.447,0.00-2.917-0.20-4.319-0.579C 198.129,306.721, 193.498,301.822, 190.914,294.585
	C 188.265,287.237, 188.087,279.555, 190.402,270.827c 4.097-15.587, 15.186-26.92, 26.386-26.92c 1.447,0.00, 2.917,0.20, 4.319,0.579
	C 233.288,247.937, 240.947,266.596, 235.893,284.454z M 256.00,437.76c-118.058,0.00-213.76-95.702-213.76-213.76s 95.702-213.76, 213.76-213.76c 118.08,0.00, 213.76,95.702, 213.76,213.76
	S 374.08,437.76, 256.00,437.76z M 243.686,132.217c-13.449-6.524-27.90-7.214-33.489-7.214c-1.069,0.00-1.67,0.023-1.759,0.023c0.00,0.00-0.423,0.00-1.091,0.00
	c-8.728,0.00-52.171,2.004-52.171,41.572c0.00,38.878, 47.294,41.906, 61.79,41.906l 0.401,0.00 C 209.017,219.681, 210.754,230.947, 210.754,230.947
	C 210.019,230.903, 208.929,230.858, 207.614,230.858c-5.478,0.00-16.009,0.868-25.05,6.724C 171.498,244.685, 165.887,256.821, 165.887,273.632
	c0.00,47.451, 51.793,49.365, 52.327,49.388l 51.726,0.00 l0.00-1.136 c0.00-5.789-10.377-6.903-17.479-7.882C 250.055,313.668, 245.245,313.178, 243.865,312.487
	c 13.115-6.991, 15.23-18.013, 15.23-34.402c0.00-18.637-7.304-28.501-15.053-35.448C 239.256,238.362, 235.47,234.955, 235.47,230.457
	c0.00-4.409, 5.166-8.951, 11.178-14.228c 9.82-8.64, 23.291-20.463, 23.291-40.325C 269.939,155.374, 261.099,140.678, 243.686,132.217z M 356.801,224.20
	l-33.757,0.00 l0.00-33.757 l-21.376,0.00 L 301.669,224.20 l-33.757,0.00 l0.00,21.376 l 33.757,0.00 L 301.669,279.31 l 21.376,0.00 l0.00-33.757 l 33.757,0.00 L 356.801,224.20 z M 216.432,198.371c-1.158,0.00-2.315-0.044-3.474-0.134
	c-9.886-0.712-19.015-4.431-25.629-10.443c-6.546-5.923-9.864-13.383-9.396-20.953c 0.979-15.809, 17.992-25.094, 38.61-23.603
	c 20.33,1.47, 33.868,13.16, 32.866,28.991C 248.452,187.126, 235.515,198.371, 216.432,198.371z" />
<glyph unicode="&#x32;" d="M 220.57,141.363 C 245.018,126.515 258.099,111.078 289.254,108.698 C 404.301,99.789 468.506,223.462 452.813,337.638 C 438.912,438.81 337.971,490.342 230.40,478.285 C 145.357,468.762 60.57,399.949 57.037,301.67 C 54.835,241.613 71.885,196.557 128.998,183.91 C 153.754,227.635 121.011,237.261 115.917,268.954 C 94.925,398.566 265.472,487.04 354.714,396.467 C 416.461,333.773 375.808,140.954 276.198,160.973 C 180.813,180.147 322.918,333.645 246.758,363.776 C 184.858,388.275 151.987,288.896 181.325,239.488 C 164.122,154.547 127.078,74.547 142.08-32.00 C 190.72,3.302 207.13,70.886 220.57,141.363 Z" />
<glyph unicode="&#x33;" d="M 256.00,437.76c-118.058,0.00-213.76-95.702-213.76-213.76s 95.702-213.76, 213.76-213.76s 213.76,95.702, 213.76,213.76S 374.058,437.76, 256.00,437.76z M 270.607,173.321
	c-13.694,1.069-19.439,7.86-30.171,14.385c-5.923-30.995-13.115-60.699-34.513-76.196c-6.591,46.827, 9.709,81.986, 17.257,119.305
	C 210.286,252.501, 224.738,296.188, 251.925,285.433c 33.467-13.249-28.991-80.694, 12.937-89.134c 43.777-8.795, 61.634,75.952, 34.491,103.496
	c-39.212,39.79-114.139,0.913-104.92-56.068c 2.249-13.939, 16.611-18.147, 5.745-37.385c-25.094,5.567-32.598,25.361-31.619,51.747
	C 170.118,301.31, 207.37,331.548, 244.733,335.756c 47.272,5.277, 91.627-17.345, 97.773-61.813C 349.386,223.733, 321.153,169.402, 270.607,173.321z" />
<glyph unicode="&#x34;" d="M 129.946,401.92 C 129.306,429.773 109.85,451.174 78.106,451.174 C 46.362,451.174 25.60,429.773 25.60,401.92 C 25.60,374.707 45.696,352.666 76.80,352.666 C 109.85,352.666 129.946,374.707 129.946,401.92 Z M 28.211-3.174 L 126.72-3.174 L 126.72,313.754 L 28.211,313.754 L 28.211-3.174 Z M 185.677,212.659 L 185.677-3.20 L 284.186-3.20 L 284.186,179.584 C 284.186,188.672 284.826,197.734 287.437,204.211 C 294.579,222.362 310.758,241.152 337.971,241.152 C 373.606,241.152 387.891,213.274 387.891,172.442 L 387.891-3.20 L 486.40-3.20 L 486.40,184.115 C 486.40,277.453 437.786,320.87 372.992,320.87 C 319.846,320.87 288.077,290.432 275.123,269.67 L 273.178,269.67 L 268.621,313.754 L 183.066,313.754 C 184.371,285.235 185.677,252.186 185.677,212.659 Z" />
<glyph unicode="&#x35;" d="M 256.00,437.76c-118.058,0.00-213.76-95.702-213.76-213.76s 95.702-213.76, 213.76-213.76s 213.76,95.702, 213.76,213.76S 374.058,437.76, 256.00,437.76z M 203.673,135.401L 160.387,135.401 L 160.387,274.679 L 203.673,274.679 
	L 203.673,135.401 z M 181.763,291.779c-13.671,0.00-22.512,9.709-22.512,21.666c0.00,12.247, 9.107,21.643, 23.069,21.643s 22.512-9.396, 22.779-21.643
	C 205.121,301.465, 196.281,291.779, 181.763,291.779z M 361.744,135.401l-43.264,0.00 l0.00,77.198 c0.00,17.947-6.279,30.171-21.933,30.171
	c-11.957,0.00-19.061-8.261-22.222-16.232c-1.136-2.828-1.425-6.836-1.425-10.799l0.00-80.316 L 229.591,135.423 l0.00,94.856 c0.00,17.368-0.557,31.908-1.136,44.422l 37.586,0.00 
	l 2.004-19.349l 0.846,0.00 c 5.701,9.107, 19.662,22.489, 43.019,22.489c 28.479,0.00, 49.833-19.061, 49.833-60.076L 361.744,135.401 z" />
<glyph unicode="&#x36;" d="M 367.981,448.00l-224.00,0.00 C 123.373,448.00, 106.667,431.275, 106.667,410.667l0.00-373.333 c0.00-20.608, 16.707-37.333, 37.315-37.333l 224.00,0.00 
			C 388.608,0.00, 405.333,16.725, 405.333,37.333L 405.333,410.667 C 405.333,431.275, 388.608,448.00, 367.981,448.00z M 200.00,429.333l 93.333,0.00 l 1.157-18.667L 200.00,410.667 L 200.00,429.333 z M 255.608,28.00c-10.304,0.00-18.667,8.344-18.667,18.667s 8.363,18.667, 18.667,18.667
			c 10.323,0.00, 18.667-8.344, 18.667-18.667S 265.912,28.00, 255.608,28.00z M 367.981,93.333l-224.00,0.00 l 0.392,298.667l 223.608,0.00 L 367.981,93.333 z" />
<glyph unicode="&#x37;" d="M 388.019,448.00l-280.00,0.00 C 87.392,448.00, 70.667,431.275, 70.667,410.667l0.00-373.333 c0.00-20.608, 16.725-37.333, 37.352-37.333l 280.00,0.00 
			C 408.627,0.00, 425.333,16.725, 425.333,37.333L 425.333,410.667 C 425.333,431.275, 408.627,448.00, 388.019,448.00z M 248.00,18.667c-10.304,0.00-18.648,8.344-18.648,18.667s 8.344,18.667, 18.648,18.667
			c 10.323,0.00, 18.685-8.344, 18.685-18.667S 258.323,18.667, 248.00,18.667z M 387.832,75.824L 107.347,75.824 L 107.347,410.181 l 280.485,0.00 L 387.832,75.824 z" />
<glyph unicode="&#x38;" d="M 272.00,80.992l-48.00,0.00 L 224.00,56.00 L 176.00,48.00l0.00-16.00 l 143.008,0.00 l0.00,15.008 L 272.00,56.00L 272.00,80.992 z M 432.00,416.00L 64.00,416.00 
			C 46.32,416.00, 32.00,401.68, 32.00,384.00l0.00-224.00 C 32.00,142.336, 46.32,128.00, 64.00,128.00l 368.00,0.00 c 17.68,0.00, 32.00,14.336, 32.00,32.00L 464.00,384.00 C 464.00,401.68, 449.68,416.00, 432.00,416.00z M 246.00,152.00
			c-8.832,0.00-16.00,7.168-16.00,16.00c0.00,8.848, 7.168,16.00, 16.00,16.00c 8.848,0.00, 16.00-7.152, 16.00-16.00C 262.00,159.168, 254.832,152.00, 246.00,152.00z M 432.00,208.00L 64.00,208.00 L 64.00,384.00 l 368.00,0.00 L 432.00,208.00 z" />
<glyph unicode="&#x39;" d="M 152.816,223.984 L 357.617,106.204 L 357.596,341.731 Z" />
<glyph unicode="&#x3a;" d="M 372.977,326.348 L 137.456,326.371 L 255.232,121.564 Z" />
<glyph unicode="&#x3b;" d="M 138.48,121.585 L 374.001,121.564 L 256.224,326.371 Z" />
<glyph unicode="&#x3c;" d="M 153.86,341.731 L 153.84,106.204 L 358.641,223.984 Z" />
<glyph unicode="&#x3d;" d="M 291.306,85.291 C 302.01,74.855 321.25,74.147 332.666,85.291 C 344.083,96.427 344.986,111.967 332.666,125.631 L 236.746,225.675 L 332.666,325.727 C 344.986,339.386 344.083,354.93 332.666,366.058 C 321.25,377.205 302.01,376.494 291.306,366.058 C 280.615,355.627 176.058,245.847 176.058,245.847 C 170.346,240.282 167.49,232.978 167.49,225.675 C 167.49,218.372 170.346,211.076 176.058,205.507 C 176.058,205.507 280.614,95.727 291.306,85.291 Z" />
<glyph unicode="&#x3e;" d="M 396.624,260.744 C 407.059,271.448 407.768,290.688 396.624,302.104 C 385.488,313.521 369.948,314.424 356.284,302.104 L 256.24,206.184 L 156.188,302.104 C 142.529,314.424 126.985,313.521 115.857,302.104 C 104.71,290.688 105.421,271.448 115.857,260.744 C 126.288,250.053 236.068,145.496 236.068,145.496 C 241.633,139.784 248.937,136.928 256.24,136.928 C 263.543,136.928 270.839,139.784 276.408,145.496 C 276.408,145.496 386.188,250.052 396.624,260.744 Z" />
<glyph unicode="&#x3f;" d="M 396.62,187.188 C 386.187,197.884 276.409,302.44 276.409,302.44 C 270.84,308.148 263.541,311.012 256.241,311.012 C 248.929,311.012 241.629,308.148 236.069,302.44 C 236.069,302.44 126.289,197.883 115.848,187.188 C 105.42,176.492 104.708,157.251 115.848,145.828 C 126.98,134.416 142.528,133.508 156.188,145.828 L 256.24,241.748 L 356.28,145.828 C 369.948,133.508 385.488,134.416 396.62,145.828 C 407.768,157.253 407.059,176.493 396.62,187.188 Z" />
<glyph unicode="&#x40;" d="M 221.166,81.878 C 231.862,92.311 336.418,202.089 336.418,202.089 C 342.126,207.658 344.99,214.957 344.99,222.257 C 344.99,229.569 342.126,236.869 336.418,242.429 C 336.418,242.429 231.861,352.209 221.166,362.65 C 210.47,373.078 191.229,373.79 179.806,362.65 C 168.394,351.518 167.486,335.97 179.806,322.31 L 275.726,222.258 L 179.805,122.217 C 167.485,108.549 168.393,93.009 179.805,81.877 C 191.23,70.73 210.47,71.438 221.166,81.878 Z" />
<glyph unicode="&#x41;" d="M 349.12,271.52l-16.032,16.032c-2.96,2.96-7.744,2.96-10.688,0.00l-96.224-96.208l-45.744,46.112c-2.976,2.96-7.744,2.96-10.72,0.00
		l-16.032-16.048c-2.96-2.96-2.96-7.744,0.00-10.688l 67.088-67.568c 2.96-2.944, 7.744-2.944, 10.688,0.00l 117.664,117.664
		C 352.096,263.776, 352.096,268.56, 349.12,271.52zM 256.00,432.00C 141.12,432.00, 48.00,338.88, 48.00,224.00s 93.12-208.00, 208.00-208.00s 208.00,93.12, 208.00,208.00S 370.88,432.00, 256.00,432.00z M 256.00,64.00c-88.352,0.00-160.00,71.648-160.00,160.00
		c0.00,88.368, 71.648,160.00, 160.00,160.00c 88.368,0.00, 160.00-71.632, 160.00-160.00C 416.00,135.648, 344.368,64.00, 256.00,64.00z" />
<glyph unicode="&#x42;" d="M 256.00,16.00C 141.12,16.00, 48.00,109.12, 48.00,224.00S 141.12,432.00, 256.00,432.00s 208.00-93.12, 208.00-208.00S 370.88,16.00, 256.00,16.00z M 256.00,384.00
	C 167.648,384.00, 96.00,312.352, 96.00,224.00s 71.648-160.00, 160.00-160.00c 88.368,0.00, 160.00,71.648, 160.00,160.00S 344.368,384.00, 256.00,384.00z M 328.592,167.44l-16.224-16.224
	c-2.976-2.976-7.808-2.976-10.80,0.00l-45.92,45.92l-45.92-45.92c-2.992-2.976-7.808-2.976-10.80,0.00l-16.224,16.224
	c-2.976,2.976-2.976,7.808,0.00,10.80l 45.936,45.904l-45.936,45.92c-2.976,2.992-2.976,7.824,0.00,10.816l 16.224,16.208
	c 2.992,2.992, 7.808,2.992, 10.80,0.00l 45.92-45.92l 45.92,45.92c 2.992,2.992, 7.824,2.992, 10.80,0.00l 16.224-16.208
	c 2.976-2.992, 2.976-7.824,0.00-10.816l-45.936-45.92l 45.936-45.904C 331.568,175.248, 331.568,170.40, 328.592,167.44z" />
<glyph unicode="&#x43;" d="M 256.00,16.00C 141.12,16.00, 48.00,109.12, 48.00,224.00S 141.12,432.00, 256.00,432.00s 208.00-93.12, 208.00-208.00S 370.88,16.00, 256.00,16.00z M 256.00,384.00
	C 167.648,384.00, 96.00,312.368, 96.00,224.00c0.00-88.352, 71.648-160.00, 160.00-160.00c 88.368,0.00, 160.00,71.648, 160.00,160.00C 416.00,312.368, 344.368,384.00, 256.00,384.00z M 319.808,208.00l-48.00,0.00 l0.00-48.00 
	c0.00-8.848-7.168-16.00-16.00-16.00c-8.848,0.00-16.00,7.152-16.00,16.00l0.00,48.00 l-48.00,0.00 c-8.848,0.00-16.00,7.168-16.00,16.00c0.00,8.832, 7.152,16.00, 16.00,16.00l 48.00,0.00 l0.00,48.00 c0.00,8.848, 7.152,16.00, 16.00,16.00
	c 8.832,0.00, 16.00-7.152, 16.00-16.00l0.00-48.00 l 48.00,0.00 c 8.832,0.00, 16.00-7.168, 16.00-16.00C 335.808,215.168, 328.64,208.00, 319.808,208.00z" />
<glyph unicode="&#x44;" d="M 256.00,432.00C 141.12,432.00, 48.00,338.88, 48.00,224.00s 93.12-208.00, 208.00-208.00s 208.00,93.12, 208.00,208.00S 370.88,432.00, 256.00,432.00z M 256.00,64.00
			c-88.352,0.00-160.00,71.648-160.00,160.00c0.00,88.368, 71.648,160.00, 160.00,160.00c 88.368,0.00, 160.00-71.632, 160.00-160.00C 416.00,135.648, 344.368,64.00, 256.00,64.00z M 315.808,240.00l-128.00,0.00 
			c-8.848,0.00-16.00-7.168-16.00-16.00c0.00-8.848, 7.152-16.00, 16.00-16.00l 128.00,0.00 c 8.848,0.00, 16.00,7.152, 16.00,16.00C 331.808,232.832, 324.656,240.00, 315.808,240.00z" />
<glyph unicode="&#x45;" d="M 256.00,432.00C 141.12,432.00, 48.00,338.88, 48.00,224.00s 93.12-208.00, 208.00-208.00s 208.00,93.12, 208.00,208.00S 370.88,432.00, 256.00,432.00z
	 M 372.128,283.088l-151.776-151.76c-3.808-3.792-9.968-3.792-13.776,0.00l-3.056,3.056l-0.016-0.016L 120.00,218.464
	c-3.808,3.808-3.808,9.984,0.00,13.792l 20.704,20.688c 3.808,3.808, 9.984,3.808, 13.792,0.00l 59.024-59.456l 124.096,124.096
	c 3.808,3.808, 9.984,3.808, 13.792,0.00l 20.704-20.704C 375.936,293.088, 375.936,286.912, 372.128,283.088z" />
<glyph unicode="&#x46;" d="M 256.00,16.00C 141.12,16.00, 48.00,109.12, 48.00,224.00S 141.12,432.00, 256.00,432.00s 208.00-93.12, 208.00-208.00S 370.88,16.00, 256.00,16.00z
	 M 351.376,284.656c 3.904,3.904, 3.904,10.256,0.00,14.16l-21.248,21.232c-3.904,3.904-10.256,3.904-14.16,0.00l-60.176-60.176l-60.176,60.176
	c-3.904,3.904-10.256,3.904-14.16,0.00l-21.248-21.232c-3.904-3.904-3.904-10.256,0.00-14.16l 60.192-60.192l-60.192-60.16
	c-3.904-3.904-3.904-10.256,0.00-14.16l 21.248-21.248c 3.904-3.904, 10.256-3.904, 14.16,0.00l 60.176,60.192l 60.176-60.192
	c 3.904-3.904, 10.256-3.904, 14.16,0.00l 21.248,21.248c 3.904,3.904, 3.904,10.256,0.00,14.16l-60.192,60.16L 351.376,284.656z" />
<glyph unicode="&#x47;" d="M 248.00,8.00c-114.88,0.00-208.00,93.12-208.00,208.00s 93.12,208.00, 208.00,208.00s 208.00-93.12, 208.00-208.00
	S 362.88,8.00, 248.00,8.00z M 351.008,224.992c0.00,8.832-7.168,16.00-16.00,16.00l-64.00,0.00 l0.00,64.00 c0.00,8.832-7.152,16.00-16.00,16.00l-16.00,0.00 c-8.848,0.00-16.00-7.168-16.00-16.00l0.00-64.00 l-64.00,0.00 
	c-8.848,0.00-16.00-7.168-16.00-16.00l0.00-16.00 c0.00-8.848, 7.152-16.00, 16.00-16.00l 64.00,0.00 l0.00-64.00 c0.00-8.848, 7.152-16.00, 16.00-16.00l 16.00,0.00 c 8.848,0.00, 16.00,7.152, 16.00,16.00l0.00,64.00 l 64.00,0.00 c 8.832,0.00, 16.00,7.152, 16.00,16.00L 351.008,224.992 z" />
<glyph unicode="&#x48;" d="M 248.00,424.00c-114.88,0.00-208.00-93.12-208.00-208.00s 93.12-208.00, 208.00-208.00c 114.88,0.00, 208.00,93.12, 208.00,208.00
			S 362.88,424.00, 248.00,424.00z M 352.00,210.00c0.00-8.848-7.168-16.00-16.00-16.00L 160.00,194.00 c-8.848,0.00-16.00,7.152-16.00,16.00l0.00,16.00 c0.00,8.832, 7.152,16.00, 16.00,16.00l 176.00,0.00 c 8.832,0.00, 16.00-7.168, 16.00-16.00
			L 352.00,210.00 z" />
<glyph unicode="&#x49;" d="M 212.08,44.772 C 212.624,44.772 213.16,44.781 213.712,44.81 C 225.452,45.341 236.172,51.613 242.384,61.593 L 421.151,348.619 C 431.571,365.347 426.463,387.363 409.731,397.779 C 392.983,408.179 370.983,403.063 360.559,386.347 L 209.223,143.363 L 149.052,222.815 C 137.152,238.515 114.792,241.631 99.052,229.727 C 83.344,217.82 80.24,195.45 92.144,179.731 L 183.632,58.924 C 190.40,49.98 200.944,44.772 212.08,44.772 Z" />
<glyph unicode="&#x4a;" d="M 367.564,143.291 L 296.967,223.967 L 367.564,304.647 C 379.56,316.643 379.56,336.095 367.564,348.091 C 355.56,360.087 336.108,360.087 324.112,348.087 L 256.24,270.512 L 188.364,348.088 C 176.368,360.088 156.92,360.088 144.912,348.092 C 132.92,336.096 132.92,316.644 144.912,304.648 L 215.509,223.968 L 144.912,143.292 C 132.92,131.292 132.92,111.844 144.908,99.848 C 156.908,87.848 176.36,87.848 188.365,99.848 L 256.241,177.42 L 324.113,99.848 C 336.12,87.848 355.569,87.848 367.57,99.848 C 379.56,111.844 379.56,131.292 367.564,143.291 Z" />
<glyph unicode="&#x4b;" d="M 389.361,249.568 L 281.841,249.568 L 281.841,357.088 C 281.841,371.228 270.381,372.448 256.241,372.448 C 242.101,372.448 230.641,371.227 230.641,357.088 L 230.641,249.568 L 123.121,249.568 C 108.981,249.568 107.761,238.108 107.761,223.968 C 107.761,209.828 108.982,198.368 123.121,198.368 L 230.641,198.368 L 230.641,90.848 C 230.641,76.708 242.101,75.488 256.241,75.488 C 270.381,75.488 281.841,76.709 281.841,90.848 L 281.841,198.368 L 389.361,198.368 C 403.501,198.368 404.721,209.828 404.721,223.968 C 404.721,238.108 403.50,249.568 389.361,249.568 Z" />
<glyph unicode="&#x4c;" d="M 389.361,249.568 L 123.121,249.568 C 108.981,249.568 107.761,238.108 107.761,223.968 C 107.761,209.828 108.982,198.368 123.121,198.368 L 389.361,198.368 C 403.501,198.368 404.721,209.828 404.721,223.968 C 404.721,238.108 403.50,249.568 389.361,249.568 Z" />
<glyph unicode="&#x4d;" d="M 424.00,48.00l-48.00,0.00 c-4.416,0.00-8.00,3.584-8.00,8.00s 3.584,8.00, 8.00,8.00L 416.00,64.00 l0.00,40.00 
	c0.00,4.416, 3.584,8.00, 8.00,8.00c 4.40,0.00, 8.00-3.584, 8.00-8.00l0.00-48.00 C 432.00,51.584, 428.40,48.00, 424.00,48.00z M 424.00,144.00c-4.416,0.00-8.00,3.584-8.00,8.00l0.00,48.00 
	c0.00,4.416, 3.584,8.00, 8.00,8.00c 4.40,0.00, 8.00-3.584, 8.00-8.00l0.00-48.00 C 432.00,147.584, 428.40,144.00, 424.00,144.00z M 424.00,240.00c-4.416,0.00-8.00,3.584-8.00,8.00l0.00,48.00 
	c0.00,4.416, 3.584,8.00, 8.00,8.00c 4.40,0.00, 8.00-3.584, 8.00-8.00l0.00-48.00 C 432.00,243.584, 428.40,240.00, 424.00,240.00z M 424.00,336.00C 419.584,336.00, 416.00,339.584, 416.00,344.00L 416.00,384.00 l-40.00,0.00 
	C 371.584,384.00, 368.00,387.584, 368.00,392.00S 371.584,400.00, 376.00,400.00l 48.00,0.00 C 428.40,400.00, 432.00,396.416, 432.00,392.00l0.00-48.00 C 432.00,339.584, 428.40,336.00, 424.00,336.00z M 234.656,143.152
	c-2.944-2.96-7.728-2.96-10.688,0.00l-2.368,2.368l0.00,0.00l-2.528,2.528l-11.136,11.136c-0.032,0.048-0.016,0.112-0.048,0.144L 156.88,210.72
	c-2.96,2.944-2.96,7.728,0.00,10.688l 16.032,16.048c 2.96,2.96, 7.744,2.96, 10.704,0.00l 45.76-46.096l 96.224,96.208
	c 2.944,2.96, 7.728,2.96, 10.688,0.00l 16.032-16.048c 2.976-2.96, 2.976-7.744,0.00-10.704L 234.656,143.152z M 328.00,384.00l-48.00,0.00 C 275.584,384.00, 272.00,387.584, 272.00,392.00
	S 275.584,400.00, 280.00,400.00l 48.00,0.00 C 332.40,400.00, 336.00,396.416, 336.00,392.00S 332.40,384.00, 328.00,384.00z M 232.00,384.00l-48.00,0.00 C 179.584,384.00, 176.00,387.584, 176.00,392.00S 179.584,400.00, 184.00,400.00l 48.00,0.00 
	C 236.40,400.00, 240.00,396.416, 240.00,392.00S 236.40,384.00, 232.00,384.00z M 136.00,48.00l-48.00,0.00 C 83.584,48.00, 80.00,51.584, 80.00,56.00l0.00,48.00 C 80.00,108.416, 83.584,112.00, 88.00,112.00
	C 92.416,112.00, 96.00,108.416, 96.00,104.00L 96.00,64.00 l 40.00,0.00 C 140.416,64.00, 144.00,60.416, 144.00,56.00S 140.416,48.00, 136.00,48.00z M 136.00,384.00L 96.00,384.00 l0.00-40.00 C 96.00,339.584, 92.416,336.00, 88.00,336.00
	C 83.584,336.00, 80.00,339.584, 80.00,344.00l0.00,48.00 C 80.00,396.416, 83.584,400.00, 88.00,400.00l 48.00,0.00 C 140.416,400.00, 144.00,396.416, 144.00,392.00S 140.416,384.00, 136.00,384.00z M 88.00,304.00C 92.416,304.00, 96.00,300.416, 96.00,296.00l0.00-48.00 
	C 96.00,243.584, 92.416,240.00, 88.00,240.00C 83.584,240.00, 80.00,243.584, 80.00,248.00l0.00,48.00 C 80.00,300.416, 83.584,304.00, 88.00,304.00z M 88.00,208.00C 92.416,208.00, 96.00,204.416, 96.00,200.00l0.00-48.00 
	C 96.00,147.584, 92.416,144.00, 88.00,144.00C 83.584,144.00, 80.00,147.584, 80.00,152.00l0.00,48.00 C 80.00,204.416, 83.584,208.00, 88.00,208.00z M 184.00,64.00l 48.00,0.00 c 4.40,0.00, 8.00-3.584, 8.00-8.00
	S 236.40,48.00, 232.00,48.00l-48.00,0.00 c-4.416,0.00-8.00,3.584-8.00,8.00S 179.584,64.00, 184.00,64.00z M 280.00,64.00l 48.00,0.00 c 4.40,0.00, 8.00-3.584, 8.00-8.00S 332.40,48.00, 328.00,48.00l-48.00,0.00 
	c-4.416,0.00-8.00,3.584-8.00,8.00S 275.584,64.00, 280.00,64.00z" />
<glyph unicode="&#x4e;" d="M 424.00,48.00l-48.00,0.00 c-4.416,0.00-8.00,3.584-8.00,8.00s 3.584,8.00, 8.00,8.00L 416.00,64.00 l0.00,40.00 
	c0.00,4.416, 3.584,8.00, 8.00,8.00c 4.40,0.00, 8.00-3.584, 8.00-8.00l0.00-48.00 C 432.00,51.584, 428.40,48.00, 424.00,48.00z M 424.00,144.00c-4.416,0.00-8.00,3.584-8.00,8.00l0.00,48.00 
	c0.00,4.416, 3.584,8.00, 8.00,8.00c 4.40,0.00, 8.00-3.584, 8.00-8.00l0.00-48.00 C 432.00,147.584, 428.40,144.00, 424.00,144.00z M 424.00,240.00c-4.416,0.00-8.00,3.584-8.00,8.00l0.00,48.00 
	c0.00,4.416, 3.584,8.00, 8.00,8.00c 4.40,0.00, 8.00-3.584, 8.00-8.00l0.00-48.00 C 432.00,243.584, 428.40,240.00, 424.00,240.00z M 424.00,336.00C 419.584,336.00, 416.00,339.584, 416.00,344.00L 416.00,384.00 l-40.00,0.00 
	C 371.584,384.00, 368.00,387.584, 368.00,392.00S 371.584,400.00, 376.00,400.00l 48.00,0.00 C 428.40,400.00, 432.00,396.416, 432.00,392.00l0.00-48.00 C 432.00,339.584, 428.40,336.00, 424.00,336.00z M 328.00,48.00l-48.00,0.00 
	c-4.416,0.00-8.00,3.584-8.00,8.00s 3.584,8.00, 8.00,8.00l 48.00,0.00 c 4.40,0.00, 8.00-3.584, 8.00-8.00S 332.40,48.00, 328.00,48.00z M 328.00,384.00l-48.00,0.00 
	C 275.584,384.00, 272.00,387.584, 272.00,392.00S 275.584,400.00, 280.00,400.00l 48.00,0.00 C 332.40,400.00, 336.00,396.416, 336.00,392.00S 332.40,384.00, 328.00,384.00z M 232.00,384.00l-48.00,0.00 C 179.584,384.00, 176.00,387.584, 176.00,392.00
	S 179.584,400.00, 184.00,400.00l 48.00,0.00 C 236.40,400.00, 240.00,396.416, 240.00,392.00S 236.40,384.00, 232.00,384.00z M 136.00,48.00l-48.00,0.00 C 83.584,48.00, 80.00,51.584, 80.00,56.00l0.00,48.00 C 80.00,108.416, 83.584,112.00, 88.00,112.00
	C 92.416,112.00, 96.00,108.416, 96.00,104.00L 96.00,64.00 l 40.00,0.00 C 140.416,64.00, 144.00,60.416, 144.00,56.00S 140.416,48.00, 136.00,48.00z M 136.00,384.00L 96.00,384.00 l0.00-40.00 C 96.00,339.584, 92.416,336.00, 88.00,336.00
	C 83.584,336.00, 80.00,339.584, 80.00,344.00l0.00,48.00 C 80.00,396.416, 83.584,400.00, 88.00,400.00l 48.00,0.00 C 140.416,400.00, 144.00,396.416, 144.00,392.00S 140.416,384.00, 136.00,384.00z M 88.00,304.00C 92.416,304.00, 96.00,300.416, 96.00,296.00l0.00-48.00 
	C 96.00,243.584, 92.416,240.00, 88.00,240.00C 83.584,240.00, 80.00,243.584, 80.00,248.00l0.00,48.00 C 80.00,300.416, 83.584,304.00, 88.00,304.00z M 88.00,208.00C 92.416,208.00, 96.00,204.416, 96.00,200.00l0.00-48.00 
	C 96.00,147.584, 92.416,144.00, 88.00,144.00C 83.584,144.00, 80.00,147.584, 80.00,152.00l0.00,48.00 C 80.00,204.416, 83.584,208.00, 88.00,208.00z M 331.776,164.432l-16.224-16.224
	c-2.976-2.992-7.808-2.992-10.80,0.00l-45.92,45.92l-45.92-45.92c-2.992-2.992-7.808-2.992-10.80,0.00l-16.208,16.224
	c-2.992,2.992-2.992,7.808,0.00,10.80l 45.936,45.92l-45.936,45.92c-2.992,2.976-2.992,7.808,0.00,10.80l 16.208,16.208
	c 2.992,2.992, 7.808,2.992, 10.80,0.00l 45.92-45.92l 45.92,45.92c 2.992,2.992, 7.824,2.992, 10.80,0.00l 16.224-16.208
	c 2.976-2.992, 2.976-7.824,0.00-10.80l-45.936-45.92l 45.936-45.92C 334.752,172.256, 334.752,167.424, 331.776,164.432z M 184.00,64.00l 48.00,0.00 
	c 4.40,0.00, 8.00-3.584, 8.00-8.00S 236.40,48.00, 232.00,48.00l-48.00,0.00 c-4.416,0.00-8.00,3.584-8.00,8.00S 179.584,64.00, 184.00,64.00z" />
<glyph unicode="&#x4f;" d="M 424.00,48.00l-48.00,0.00 c-4.416,0.00-8.00,3.584-8.00,8.00s 3.584,8.00, 8.00,8.00L 416.00,64.00 l0.00,40.00 
	c0.00,4.416, 3.584,8.00, 8.00,8.00c 4.40,0.00, 8.00-3.584, 8.00-8.00l0.00-48.00 C 432.00,51.584, 428.40,48.00, 424.00,48.00z M 424.00,144.00c-4.416,0.00-8.00,3.584-8.00,8.00l0.00,48.00 
	c0.00,4.416, 3.584,8.00, 8.00,8.00c 4.40,0.00, 8.00-3.584, 8.00-8.00l0.00-48.00 C 432.00,147.584, 428.40,144.00, 424.00,144.00z M 424.00,240.00c-4.416,0.00-8.00,3.584-8.00,8.00l0.00,48.00 
	c0.00,4.416, 3.584,8.00, 8.00,8.00c 4.40,0.00, 8.00-3.584, 8.00-8.00l0.00-48.00 C 432.00,243.584, 428.40,240.00, 424.00,240.00z M 424.00,336.00C 419.584,336.00, 416.00,339.584, 416.00,344.00L 416.00,384.00 l-40.00,0.00 
	C 371.584,384.00, 368.00,387.584, 368.00,392.00S 371.584,400.00, 376.00,400.00l 48.00,0.00 C 428.40,400.00, 432.00,396.416, 432.00,392.00l0.00-48.00 C 432.00,339.584, 428.40,336.00, 424.00,336.00z M 328.00,48.00l-48.00,0.00 
	c-4.416,0.00-8.00,3.584-8.00,8.00s 3.584,8.00, 8.00,8.00l 48.00,0.00 c 4.40,0.00, 8.00-3.584, 8.00-8.00S 332.40,48.00, 328.00,48.00z M 328.00,384.00l-48.00,0.00 
	C 275.584,384.00, 272.00,387.584, 272.00,392.00S 275.584,400.00, 280.00,400.00l 48.00,0.00 C 332.40,400.00, 336.00,396.416, 336.00,392.00S 332.40,384.00, 328.00,384.00z M 319.008,240.00c 8.832,0.00, 16.00-7.152, 16.00-16.00
	c0.00-8.832-7.168-16.00-16.00-16.00l-48.00,0.00 l0.00-48.00 c0.00-8.832-7.168-16.00-16.00-16.00c-8.848,0.00-16.00,7.168-16.00,16.00l0.00,48.00 l-48.00,0.00 c-8.832,0.00-16.00,7.168-16.00,16.00c0.00,8.848, 7.152,16.00, 16.00,16.00l 48.00,0.00 l0.00,48.00 
	c0.00,8.848, 7.152,16.00, 16.00,16.00c 8.832,0.00, 16.00-7.152, 16.00-16.00l0.00-48.00 L 319.008,240.00 z M 232.00,384.00l-48.00,0.00 C 179.584,384.00, 176.00,387.584, 176.00,392.00S 179.584,400.00, 184.00,400.00l 48.00,0.00 
	C 236.40,400.00, 240.00,396.416, 240.00,392.00S 236.40,384.00, 232.00,384.00z M 136.00,48.00l-48.00,0.00 C 83.584,48.00, 80.00,51.584, 80.00,56.00l0.00,48.00 C 80.00,108.416, 83.584,112.00, 88.00,112.00
	C 92.416,112.00, 96.00,108.416, 96.00,104.00L 96.00,64.00 l 40.00,0.00 C 140.416,64.00, 144.00,60.416, 144.00,56.00S 140.416,48.00, 136.00,48.00z M 136.00,384.00L 96.00,384.00 l0.00-40.00 C 96.00,339.584, 92.416,336.00, 88.00,336.00
	C 83.584,336.00, 80.00,339.584, 80.00,344.00l0.00,48.00 C 80.00,396.416, 83.584,400.00, 88.00,400.00l 48.00,0.00 C 140.416,400.00, 144.00,396.416, 144.00,392.00S 140.416,384.00, 136.00,384.00z M 88.00,304.00C 92.416,304.00, 96.00,300.416, 96.00,296.00l0.00-48.00 
	C 96.00,243.584, 92.416,240.00, 88.00,240.00C 83.584,240.00, 80.00,243.584, 80.00,248.00l0.00,48.00 C 80.00,300.416, 83.584,304.00, 88.00,304.00z M 88.00,208.00C 92.416,208.00, 96.00,204.416, 96.00,200.00l0.00-48.00 
	C 96.00,147.584, 92.416,144.00, 88.00,144.00C 83.584,144.00, 80.00,147.584, 80.00,152.00l0.00,48.00 C 80.00,204.416, 83.584,208.00, 88.00,208.00z M 184.00,64.00l 48.00,0.00 c 4.40,0.00, 8.00-3.584, 8.00-8.00
	S 236.40,48.00, 232.00,48.00l-48.00,0.00 c-4.416,0.00-8.00,3.584-8.00,8.00S 179.584,64.00, 184.00,64.00z" />
<glyph unicode="&#x50;" d="M 136.00,400.00l-48.00,0.00 C 83.584,400.00, 80.00,396.416, 80.00,392.00l0.00-48.00 C 80.00,339.584, 83.584,336.00, 88.00,336.00C 92.416,336.00, 96.00,339.584, 96.00,344.00
			L 96.00,384.00 l 40.00,0.00 C 140.416,384.00, 144.00,387.584, 144.00,392.00S 140.416,400.00, 136.00,400.00z M 184.00,384.00l 48.00,0.00 C 236.40,384.00, 240.00,387.584, 240.00,392.00S 236.40,400.00, 232.00,400.00l-48.00,0.00 C 179.584,400.00, 176.00,396.416, 176.00,392.00
			S 179.584,384.00, 184.00,384.00z M 328.00,400.00l-48.00,0.00 C 275.584,400.00, 272.00,396.416, 272.00,392.00S 275.584,384.00, 280.00,384.00l 48.00,0.00 C 332.40,384.00, 336.00,387.584, 336.00,392.00S 332.40,400.00, 328.00,400.00z M 424.00,400.00l-48.00,0.00 
			C 371.584,400.00, 368.00,396.416, 368.00,392.00S 371.584,384.00, 376.00,384.00L 416.00,384.00 l0.00-40.00 C 416.00,339.584, 419.584,336.00, 424.00,336.00C 428.40,336.00, 432.00,339.584, 432.00,344.00l0.00,48.00 
			C 432.00,396.416, 428.40,400.00, 424.00,400.00z M 424.00,304.00c-4.416,0.00-8.00-3.584-8.00-8.00l0.00-48.00 c0.00-4.416, 3.584-8.00, 8.00-8.00c 4.40,0.00, 8.00,3.584, 8.00,8.00l0.00,48.00 
			C 432.00,300.416, 428.40,304.00, 424.00,304.00z M 424.00,208.00c-4.416,0.00-8.00-3.584-8.00-8.00l0.00-48.00 c0.00-4.416, 3.584-8.00, 8.00-8.00c 4.40,0.00, 8.00,3.584, 8.00,8.00l0.00,48.00 
			C 432.00,204.416, 428.40,208.00, 424.00,208.00z M 424.00,112.00c-4.416,0.00-8.00-3.584-8.00-8.00L 416.00,64.00 l-40.00,0.00 c-4.416,0.00-8.00-3.584-8.00-8.00s 3.584-8.00, 8.00-8.00l 48.00,0.00 
			c 4.40,0.00, 8.00,3.584, 8.00,8.00l0.00,48.00 C 432.00,108.416, 428.40,112.00, 424.00,112.00z M 328.00,64.00l-48.00,0.00 c-4.416,0.00-8.00-3.584-8.00-8.00s 3.584-8.00, 8.00-8.00l 48.00,0.00 
			c 4.40,0.00, 8.00,3.584, 8.00,8.00S 332.40,64.00, 328.00,64.00z M 232.00,64.00l-48.00,0.00 c-4.416,0.00-8.00-3.584-8.00-8.00s 3.584-8.00, 8.00-8.00l 48.00,0.00 
			c 4.40,0.00, 8.00,3.584, 8.00,8.00S 236.40,64.00, 232.00,64.00z M 136.00,64.00L 96.00,64.00 l0.00,40.00 C 96.00,108.416, 92.416,112.00, 88.00,112.00C 83.584,112.00, 80.00,108.416, 80.00,104.00l0.00-48.00 
			C 80.00,51.584, 83.584,48.00, 88.00,48.00l 48.00,0.00 C 140.416,48.00, 144.00,51.584, 144.00,56.00S 140.416,64.00, 136.00,64.00z M 88.00,144.00C 92.416,144.00, 96.00,147.584, 96.00,152.00l0.00,48.00 
			C 96.00,204.416, 92.416,208.00, 88.00,208.00C 83.584,208.00, 80.00,204.416, 80.00,200.00l0.00-48.00 C 80.00,147.584, 83.584,144.00, 88.00,144.00z M 88.00,240.00C 92.416,240.00, 96.00,243.584, 96.00,248.00l0.00,48.00 
			C 96.00,300.416, 92.416,304.00, 88.00,304.00C 83.584,304.00, 80.00,300.416, 80.00,296.00l0.00-48.00 C 80.00,243.584, 83.584,240.00, 88.00,240.00z M 191.008,208.00l 128.00,0.00 c 8.848,0.00, 16.00,7.168, 16.00,16.00
			c0.00,8.848-7.152,16.00-16.00,16.00l-128.00,0.00 c-8.848,0.00-16.00-7.152-16.00-16.00C 175.008,215.168, 182.16,208.00, 191.008,208.00z" />
<glyph unicode="&#x51;" d="M 69.528,432.00 L 50.989,432.00 L 50.989,0.00 L 426.641,0.00 L 426.641,18.088 L 69.847,19.008 L 69.528,432.00 Z M 107.337,56.348 L 201.25,56.348 L 201.25,260.609 L 107.337,166.696 L 107.337,56.348 Z M 220.033,56.348 L 313.946,56.348 L 313.946,241.826 L 276.381,204.261 L 220.033,260.609 L 220.033,56.348 Z M 332.728,56.348 L 426.641,56.348 L 426.641,341.599 L 332.728,247.686 L 332.728,56.348 Z M 208.312,318.046 L 276.305,250.429 L 410.563,384.01 L 445.011,349.375 L 444.184,432.00 L 361.259,431.568 L 393.509,399.224 L 276.268,281.645 L 206.979,351.197 L 101.364,245.939 L 119.001,228.81 L 208.312,318.046 Z" />
<glyph unicode="&#x52;" d="M 111.792,400.00 L 96.00,400.00 L 96.00,32.00 L 416.00,32.00 L 416.00,47.408 L 112.064,48.208 L 111.792,400.00 Z M 224.00,259.008 L 144.00,339.008 L 144.00,80.00 L 224.00,80.00 L 224.00,259.008 Z M 240.00,270.00 L 240.00,80.00 L 320.00,80.00 L 320.00,286.00 L 288.00,318.00 L 240.00,270.00 Z M 336.00,224.00 L 336.00,80.00 L 416.00,80.00 L 416.00,224.00 L 336.00,224.00 Z M 289.904,362.064 L 373.776,277.92 L 350.304,255.68 L 415.952,254.976 L 415.648,318.352 L 387.312,290.848 L 289.936,389.648 L 230.016,329.056 L 160.944,398.08 L 146.912,383.504 L 228.88,300.816 L 289.904,362.064 Z" />
<glyph unicode="&#x53;" d="M 432.00,239.504 L 112.00,239.504 L 112.00,159.504 L 432.00,159.504 C 440.832,159.504 448.00,166.656 448.00,175.504 L 448.00,223.504 C 448.00,232.336 440.832,239.504 432.00,239.504 Z M 352.00,79.504 L 352.00,127.504 C 352.00,136.352 344.832,143.504 336.00,143.504 L 112.00,143.504 L 112.00,63.504 L 336.00,63.504 C 344.832,63.504 352.00,70.656 352.00,79.504 Z M 256.00,271.504 L 256.00,319.504 C 256.00,328.336 248.832,335.504 240.00,335.504 L 112.00,335.504 L 112.00,255.504 L 240.00,255.504 C 248.832,255.504 256.00,262.672 256.00,271.504 Z M 160.00,367.504 L 160.00,415.504 C 160.00,424.352 152.832,431.504 144.00,431.504 L 112.00,431.504 L 112.00,351.504 L 144.00,351.504 C 152.832,351.504 160.00,358.672 160.00,367.504 Z M 80.00,431.504 L 64.00,431.504 L 64.00,16.496 L 448.00,16.496 L 448.00,32.496 L 80.00,32.496 L 80.00,431.504 Z" />
<glyph unicode="&#x54;" d="M 63.792,416.00 L 48.00,416.00 L 48.00,32.00 L 464.00,32.00 L 464.00,47.408 L 64.064,48.208 L 63.792,416.00 Z M 272.00,400.00 C 272.00,408.848 264.832,416.00 256.00,416.00 L 208.00,416.00 C 199.152,416.00 192.00,408.848 192.00,400.00 L 192.00,80.00 L 272.00,80.00 L 272.00,400.00 Z M 176.00,304.00 C 176.00,312.832 168.832,320.00 160.00,320.00 L 112.00,320.00 C 103.152,320.00 96.00,312.832 96.00,304.00 L 96.00,80.00 L 176.00,80.00 L 176.00,304.00 Z M 368.00,208.00 C 368.00,216.848 360.832,224.00 352.00,224.00 L 304.00,224.00 C 295.152,224.00 288.00,216.848 288.00,208.00 L 288.00,80.00 L 368.00,80.00 L 368.00,208.00 Z M 448.00,128.00 L 400.00,128.00 C 391.152,128.00 384.00,120.848 384.00,112.00 L 384.00,80.00 L 464.00,80.00 L 464.00,112.00 C 464.00,120.848 456.832,128.00 448.00,128.00 Z" />
<glyph unicode="&#x55;" d="M 239.84,209.36 C 239.84,209.36 240.496,417.504 240.00,417.504 C 131.536,417.504 48.00,322.96 48.00,212.512 C 48.00,102.064 137.552,15.52 248.00,15.52 C 358.432,15.52 448.00,98.064 448.00,208.512 C 448.00,209.44 239.84,209.36 239.84,209.36 Z M 464.00,225.504 C 464.00,335.968 365.456,432.512 255.008,432.512 C 256.544,432.512 255.008,225.504 255.008,225.504 C 255.008,225.504 464.00,224.896 464.00,225.504 Z" />
<glyph unicode="&#x56;" d="M 467.91,394.313 L 364.445,225.762 C 360.601,219.526 353.092,218.498 347.727,223.505 L 297.705,270.353 C 292.341,275.36 284.651,274.466 280.584,268.341 L 210.333,162.396 C 206.288,156.294 198.533,155.333 193.101,160.251 L 160.401,190.112 C 154.969,195.051 146.789,194.403 142.207,188.703 L 39.19,60.229 C 34.586,54.484 36.843,49.813 44.152,49.813 L 474.883,49.813 L 474.883,392.346 C 474.906,399.699 471.754,400.593 467.91,394.313 Z" />
<glyph unicode="&#x57;" d="M 224.272,331.168l 62.944,0.00 L 287.216,354.784 l-62.944,0.00 L 224.272,331.168 z M 286.752,323.312l-62.48,0.00 
			c0.00,0.00-102.80-101.328-102.80-200.672c0.00-105.264, 107.712-113.632, 107.712-113.632s 32.128-5.328, 52.112,0.00c0.00,0.00, 109.216,12.80, 109.216,113.12
			C 390.528,222.48, 286.752,323.312, 286.752,323.312z M 291.376,110.032c-2.528-5.12-5.936-9.408-10.288-12.832
			c-4.336-3.44-9.408-6.016-15.184-7.744c-0.736-0.224-1.536-0.304-2.288-0.496l0.00-17.472 l-15.728,0.00 l0.00,15.424 
			c-0.192-0.016-0.384-0.048-0.576-0.048c-4.464,0.00-8.608,0.352-12.448,1.072c-3.824,0.736-7.20,1.616-10.144,2.624
			c-2.944,1.024-5.392,2.096-7.344,3.216c-1.968,1.12-3.392,2.112-4.256,2.976c-0.88,0.864-1.488,2.112-1.856,3.744
			c-0.352,1.648-0.544,3.984-0.544,7.056c0.00,2.064, 0.064,3.792, 0.208,5.20s 0.336,2.528, 0.656,3.408
			c 0.304,0.88, 0.688,1.488, 1.184,1.856c 0.496,0.352, 1.088,0.544, 1.744,0.544c 0.944,0.00, 2.256-0.544, 3.952-1.648
			c 1.696-1.104, 3.872-2.32, 6.544-3.648c 2.672-1.344, 5.84-2.544, 9.552-3.664c 3.696-1.088, 7.984-1.648, 12.848-1.648
			c 3.20,0.00, 6.064,0.384, 8.592,1.152s 4.688,1.84, 6.448,3.248c 1.776,1.408, 3.12,3.136, 4.048,5.20c 0.944,2.08, 1.408,4.368, 1.408,6.928
			c0.00,2.928-0.816,5.44-2.40,7.552c-1.60,2.096-3.696,3.952-6.256,5.60c-2.56,1.632-5.472,3.152-8.736,4.592s-6.64,2.96-10.096,4.544
			c-3.472,1.60-6.832,3.408-10.096,5.456c-3.264,2.032-6.192,4.448-8.752,7.28s-4.64,6.192-6.256,10.048
			c-1.60,3.856-2.384,8.496-2.384,13.888c0.00,6.208, 1.152,11.648, 3.44,16.336c 2.304,4.688, 5.408,8.592, 9.296,11.68
			c 3.904,3.088, 8.496,5.408, 13.792,6.944c 2.72,0.784, 5.536,1.36, 8.416,1.728l0.00,16.56 l 15.728,0.00 l0.00-16.544 c 0.64-0.08, 1.264-0.048, 1.888-0.144
			c 3.056-0.464, 5.936-1.088, 8.592-1.888c 2.656-0.784, 5.024-1.68, 7.088-2.672s 3.44-1.808, 4.096-2.48
			c 0.688-0.656, 1.12-1.216, 1.376-1.68c 0.224-0.464, 0.40-1.088, 0.592-1.856c 0.16-0.768, 0.288-1.728, 0.336-2.912
			c 0.064-1.152, 0.096-2.608, 0.096-4.336c0.00-1.936-0.064-3.584-0.16-4.928c-0.096-1.328-0.256-2.432-0.496-3.296
			c-0.224-0.88-0.56-1.504-0.992-1.904s-0.992-0.592-1.744-0.592c-0.72,0.00-1.904,0.448-3.504,1.376
			c-1.60,0.944-3.568,1.936-5.872,3.024c-2.336,1.088-5.024,2.08-8.096,2.992c-3.088,0.896-6.448,1.328-10.096,1.328
			c-2.88,0.00-5.376-0.336-7.504-1.04c-2.144-0.688-3.92-1.664-5.36-2.88c-1.424-1.232-2.496-2.72-3.184-4.432
			c-0.704-1.712-1.04-3.552-1.04-5.472c0.00-2.88, 0.784-5.36, 2.336-7.456s 3.664-3.968, 6.304-5.60
			c 2.624-1.648, 5.616-3.168, 8.96-4.592c 3.328-1.44, 6.72-2.96, 10.192-4.544c 3.472-1.616, 6.848-3.424, 10.192-5.456
			s 6.32-4.464, 8.912-7.296s 4.688-6.16, 6.288-9.984c 1.60-3.84, 2.40-8.336, 2.40-13.552C 295.184,121.12, 293.904,115.168, 291.376,110.032z
			 M 286.256,362.656l 31.968,78.704c0.00,0.00-20.16-16.736-31.968-16.736s-30.512,16.24-30.512,16.24s-20.16-16.24-31.968-16.24
			c-11.792,0.00-30.992,15.744-30.992,15.744l 32.464-77.712L 286.256,362.656 z" />
<glyph unicode="&#x58;" d="M 547.397,123.646l 0.816,244.643L 103.708,368.017L 103.693,396.076L 576.00,396.076 l0.00-272.444 L 547.397,123.646z
	 M 532.981,80.599l-28.589,0.029l 0.816,244.643l-444.505-0.286l-0.014,28.059l 472.307,0.00 L 532.995,80.599 z M 490.864,51.924L 32.00,51.924 L 32.00,310.038 l 458.864,0.00 L 490.864,51.924 z
	 M 462.175,282.251L 60.675,282.251 l0.00-201.652l 401.486,0.00 L 462.161,282.251 z M 419.171,102.101c0.00-2.534, 0.63-4.896, 1.446-7.158L 261.425,94.943 c 39.597,0.00, 71.708,38.509, 71.708,86.038
	s-32.11,86.038-71.708,86.038l 159.177,0.00 c-0.816-2.262-1.446-4.624-1.446-7.172c0.00-11.882, 9.62-21.502, 21.502-21.502
	c 2.548,0.00, 4.91,0.63, 7.172,1.446l0.00-117.604 c-2.262,0.802-4.624,1.446-7.172,1.446C 428.791,123.618, 419.171,113.983, 419.171,102.101z
	 M 390.482,210.844c-11.882,0.00-21.502-12.827-21.502-28.675s 9.62-28.675, 21.502-28.675s 21.502,12.827, 21.502,28.675S 402.364,210.844, 390.482,210.844z
	 M 291.445,232.675c 0.215-0.415, 0.387-0.973, 0.53-1.661c 0.157-0.687, 0.258-1.56, 0.301-2.605c 0.072-1.045, 0.10-2.348, 0.10-3.908
	c0.00-1.732-0.043-3.207-0.129-4.395c-0.10-1.203-0.258-2.19-0.444-2.963c-0.229-0.787-0.515-1.36-0.888-1.704
	c-0.387-0.358-0.916-0.544-1.575-0.544s-1.689,0.415-3.135,1.245c-1.446,0.845-3.207,1.732-5.283,2.706s-4.509,1.875-7.258,2.677
	s-5.755,1.203-9.048,1.203c-2.577,0.00-4.81-0.301-6.714-0.931c-1.918-0.63-3.522-1.489-4.796-2.591c-1.288-1.102-2.248-2.434-2.863-3.965
	c-0.63-1.546-0.945-3.192-0.945-4.91c0.00-2.577, 0.701-4.796, 2.104-6.685c 1.403-1.875, 3.278-3.55, 5.655-5.011
	c 2.362-1.475, 5.039-2.835, 8.017-4.123s 6.027-2.648, 9.133-4.066c 3.107-1.446, 6.156-3.064, 9.148-4.896
	c 2.992-1.818, 5.655-3.994, 7.974-6.528c 2.333-2.548, 4.223-5.526, 5.655-8.962s 2.147-7.473, 2.147-12.14c0.00-6.084-1.145-11.438-3.407-16.019
	c-2.262-4.595-5.34-8.446-9.234-11.524s-8.418-5.383-13.614-6.929c-0.659-0.20-1.374-0.286-2.047-0.444l0.00-15.661 l-14.101,0.00 l0.00,13.815 
	c-0.186,0.00-0.344-0.043-0.53-0.043c-3.994,0.00-7.716,0.329-11.152,0.973c-3.436,0.659-6.471,1.446-9.091,2.348
	c-2.634,0.916-4.824,1.89-6.585,2.892c-1.775,1.002-3.035,1.89-3.808,2.663s-1.331,1.89-1.661,3.35s-0.501,3.579-0.501,6.328
	c0.00,1.847, 0.057,3.407, 0.186,4.653c 0.115,1.26, 0.315,2.276, 0.587,3.064c 0.272,0.773, 0.63,1.331, 1.074,1.661
	c 0.444,0.315, 0.973,0.487, 1.56,0.487c 0.845,0.00, 2.019-0.487, 3.55-1.489c 1.517-0.973, 3.479-2.076, 5.869-3.264s 5.24-2.276, 8.561-3.264
	c 3.307-0.988, 7.158-1.489, 11.51-1.489c 2.863,0.00, 5.44,0.344, 7.702,1.031c 2.276,0.687, 4.195,1.661, 5.784,2.906
	c 1.575,1.26, 2.777,2.82, 3.622,4.667c 0.845,1.861, 1.26,3.923, 1.26,6.199c0.00,2.634-0.73,4.896-2.147,6.771
	c-1.432,1.89-3.293,3.55-5.597,5.025c-2.305,1.46-4.91,2.835-7.831,4.109c-2.935,1.288-5.941,2.648-9.048,4.08
	c-3.107,1.432-6.127,3.064-9.048,4.882c-2.92,1.818-5.54,3.994-7.831,6.542c-2.291,2.534-4.166,5.54-5.597,8.99
	c-1.432,3.464-2.147,7.616-2.147,12.455c0.00,5.555, 1.031,10.436, 3.092,14.631c 2.061,4.209, 4.839,7.702, 8.332,10.479
	c 3.493,2.763, 7.616,4.853, 12.355,6.227c 2.434,0.701, 4.953,1.217, 7.544,1.56l0.00,14.817 l 14.101,0.00 l0.00-14.817 c 0.558-0.072, 1.117-0.043, 1.675-0.129
	c 2.749-0.415, 5.325-0.973, 7.716-1.689c 2.376-0.716, 4.495-1.503, 6.342-2.405c 1.861-0.888, 3.078-1.618, 3.693-2.219
	C 290.829,233.606, 291.23,233.105, 291.445,232.675z M 189.731,180.981c0.00-47.514, 32.096-86.038, 71.693-86.038L 102.248,94.943 c 0.802,2.262, 1.446,4.624, 1.446,7.158
	c0.00,11.882-9.635,21.517-21.502,21.517c-2.548,0.00-4.91-0.644-7.172-1.446l0.00,117.604 c 2.262-0.816, 4.624-1.446, 7.172-1.446
	c 11.882,0.00, 21.502,9.62, 21.502,21.502c0.00,2.548-0.644,4.91-1.446,7.172l 159.177,0.00 C 221.827,267.019, 189.731,228.495, 189.731,180.981z M 132.368,210.844
	c-11.882,0.00-21.502-12.827-21.502-28.675s 9.635-28.675, 21.502-28.675c 11.882,0.00, 21.502,12.827, 21.502,28.675S 144.25,210.844, 132.368,210.844z" horiz-adv-x="608" />
<glyph unicode="&#x59;" d="M 32.00,98.00L 32.00,350.00 l 448.00,0.00 l0.00-252.00 L 32.00,98.00 z M 60.00,322.868L 60.00,126.00 l 392.00,0.00 L 452.00,322.868 L 60.00,322.868 z M 326.00,224.00c0.00,46.382-31.332,84.00-70.00,84.00l 182.00,0.00 l0.00-168.00 L 256.00,140.00 
	C 294.668,140.00, 326.00,177.618, 326.00,224.00z M 382.00,196.00c 11.592,0.00, 21.00,12.544, 21.00,28.00s-9.408,28.00-21.00,28.00s-21.00-12.544-21.00-28.00S 370.408,196.00, 382.00,196.00z M 285.652,259.308
	c-0.21-0.77-0.504-1.316-0.868-1.666c-0.378-0.35-0.882-0.518-1.526-0.518s-1.652,0.392-3.066,1.204
	c-1.40,0.826-3.122,1.694-5.152,2.646c-2.044,0.952-4.396,1.82-7.084,2.618c-2.688,0.784-5.628,1.162-8.834,1.162
	c-2.52,0.00-4.704-0.294-6.566-0.91c-1.862-0.602-3.43-1.456-4.676-2.52c-1.26-1.078-2.184-2.38-2.80-3.878
	c-0.602-1.498-0.91-3.108-0.91-4.788c0.00-2.52, 0.686-4.69, 2.058-6.524c 1.372-1.834, 3.206-3.472, 5.516-4.90
	c 2.31-1.442, 4.914-2.772, 7.84-4.018c 2.898-1.26, 5.88-2.59, 8.918-3.976c 3.038-1.414, 6.006-2.996, 8.918-4.774
	c 2.926-1.778, 5.53-3.906, 7.798-6.384s 4.102-5.39, 5.516-8.736c 1.40-3.36, 2.086-7.294, 2.086-11.858c0.00-5.95-1.092-11.158-3.304-15.652
	c-2.226-4.48-5.222-8.232-9.03-11.228c-3.794-3.01-8.218-5.264-13.286-6.776c-0.644-0.196-1.344-0.28-2.002-0.434l0.00-15.288 l-13.762,0.00 
	l0.00,13.482 c-0.182,0.00-0.336-0.028-0.504-0.028c-3.906,0.00-7.546,0.308-10.892,0.938c-3.36,0.644-6.314,1.414-8.876,2.296
	c-2.576,0.896-4.704,1.834-6.426,2.814c-1.722,0.98-2.954,1.848-3.71,2.604c-0.756,0.756-1.302,1.848-1.624,3.276
	c-0.322,1.442-0.49,3.486-0.49,6.174c0.00,1.806, 0.056,3.318, 0.182,4.55s 0.308,2.212, 0.574,2.982s 0.602,1.302, 1.05,1.624
	c 0.434,0.308, 0.938,0.476, 1.526,0.476c 0.812,0.00, 1.96-0.476, 3.458-1.442c 1.484-0.966, 3.402-2.03, 5.726-3.192
	c 2.338-1.176, 5.11-2.226, 8.358-3.206c 3.234-0.952, 6.986-1.442, 11.242-1.442c 2.80,0.00, 5.306,0.336, 7.518,1.008s 4.102,1.61, 5.642,2.842
	s 2.716,2.744, 3.542,4.55c 0.826,1.82, 1.232,3.822, 1.232,6.062c0.00,2.562-0.714,4.76-2.10,6.608c-1.40,1.834-3.22,3.458-5.474,4.90
	c-2.24,1.428-4.788,2.758-7.644,4.018c-2.856,1.26-5.796,2.59-8.834,3.976c-3.024,1.40-5.978,2.982-8.834,4.774
	c-2.856,1.778-5.404,3.892-7.644,6.37c-2.24,2.478-4.074,5.418-5.46,8.792c-1.40,3.374-2.10,7.434-2.10,12.152
	c0.00,5.432, 1.008,10.192, 3.01,14.294c 2.016,4.102, 4.718,7.518, 8.134,10.22s 7.434,4.732, 12.068,6.076c 2.38,0.70, 4.844,1.19, 7.364,1.526
	l0.00,14.476 l 13.762,0.00 l0.00-14.476 c 0.546-0.07, 1.092-0.042, 1.638-0.126c 2.674-0.406, 5.194-0.952, 7.518-1.652c 2.338-0.686, 4.396-1.456, 6.216-2.338
	c 1.806-0.868, 2.996-1.582, 3.584-2.17c 0.588-0.574, 0.966-1.064, 1.19-1.47c 0.196-0.406, 0.364-0.952, 0.518-1.624
	c 0.14-0.672, 0.252-1.512, 0.294-2.548c 0.056-1.008, 0.084-2.282, 0.084-3.794c0.00-1.694-0.042-3.136-0.126-4.312
	C 286.002,261.044, 285.862,260.064, 285.652,259.308z M 186.00,224.00c0.00-46.382, 31.332-84.00, 70.00-84.00L 74.00,140.00 L 74.00,308.00 l 182.00,0.00 C 217.332,308.00, 186.00,270.382, 186.00,224.00z M 130.00,252.00
	c-11.606,0.00-21.00-12.544-21.00-28.00s 9.394-28.00, 21.00-28.00c 11.592,0.00, 21.00,12.544, 21.00,28.00S 141.592,252.00, 130.00,252.00z" />
<glyph unicode="&#x5a;" d="M 432.00,16.00l-31.984,0.992L 400.016-16.00 l-48.00,0.00 l0.00,32.00 L 161.008,16.00 l-0.992-32.00l-48.00,0.00 l0.00,31.008 L 80.00,16.00
	c-17.664,0.00-32.00,14.336-32.00,32.00L 48.00,432.00 c0.00,17.664, 14.336,32.00, 32.00,32.00l 352.00,0.00 c 17.664,0.00, 32.00-14.336, 32.00-32.00l0.00-384.00 C 464.00,30.336, 449.664,16.00, 432.00,16.00z M 416.00,416.00L 96.00,416.00 l0.00-63.328 L 80.336,352.992
	l0.00-49.328 L 96.00,303.664 l0.00-126.672 L 80.00,176.992 L 80.00,128.00 l 16.00,0.00 l0.00-64.00 l 320.00,0.00 L 416.00,416.00 z M 400.00,80.00L 112.00,80.00 l0.00,48.00 l 16.00,0.00 l0.00,48.992 L 112.00,176.992 L 112.00,304.00 l 16.00,0.00 l 0.336,48.672L 112.00,352.672 L 112.00,400.00 l 288.00,0.00 L 400.00,80.00 z M 232.992,311.008c-35.344,0.00-64.00-28.656-64.00-64.00
	s 28.656-64.00, 64.00-64.00c 35.36,0.00, 64.00,28.656, 64.00,64.00S 268.352,311.008, 232.992,311.008z M 376.00,295.712c0.00,8.848-7.152,16.00-16.00,16.00c-8.832,0.00-16.00-7.152-16.00-16.00
	c0.00-5.856, 3.312-10.768, 8.00-13.552l0.00-84.624 c-4.688-2.784-8.00-7.68-8.00-13.552c0.00-8.832, 7.168-16.00, 16.00-16.00c 8.848,0.00, 16.00,7.168, 16.00,16.00
	c0.00,6.304-3.712,11.616-8.992,14.224l0.00,83.28 C 372.288,284.112, 376.00,289.424, 376.00,295.712z M 232.00,220.00c-13.248,0.00-24.00,10.752-24.00,24.00
	c0.00,13.264, 10.752,24.00, 24.00,24.00c 13.264,0.00, 24.00-10.736, 24.00-24.00C 256.00,230.752, 245.264,220.00, 232.00,220.00z" />
<glyph unicode="&#x5b;" d="M 456.00,112.00L 260.064,112.00 c 5.744,9.904, 10.144,20.64, 13.056,32.00L 456.00,144.00 c 8.848,0.00, 16.00-7.152, 16.00-16.00
	C 472.00,119.168, 464.848,112.00, 456.00,112.00z M 456.00,160.00L 276.224,160.00 c 0.656,5.248, 1.104,10.576, 1.104,16.00c0.00,5.44-0.448,10.752-1.104,16.00L 456.00,192.00 
	c 8.848,0.00, 16.00-7.152, 16.00-16.00C 472.00,167.168, 464.848,160.00, 456.00,160.00z M 456.00,208.00L 273.12,208.00 c-2.928,11.36-7.312,22.096-13.056,32.00L 456.00,240.00 c 8.848,0.00, 16.00-7.152, 16.00-16.00
	C 472.00,215.168, 464.848,208.00, 456.00,208.00z M 456.00,256.00L 249.152,256.00 c-10.40,12.976-23.248,23.888-37.904,32.00L 456.00,288.00 c 8.848,0.00, 16.00-7.152, 16.00-16.00
	C 472.00,263.168, 464.848,256.00, 456.00,256.00z M 456.00,304.00l-256.00,0.00 c-8.848,0.00-16.00,7.168-16.00,16.00c0.00,8.848, 7.152,16.00, 16.00,16.00l 256.00,0.00 c 8.848,0.00, 16.00-7.152, 16.00-16.00
	C 472.00,311.168, 464.848,304.00, 456.00,304.00z M 456.00,352.00l-256.00,0.00 c-8.848,0.00-16.00,7.168-16.00,16.00c0.00,8.848, 7.152,16.00, 16.00,16.00l 256.00,0.00 c 8.848,0.00, 16.00-7.152, 16.00-16.00
	C 472.00,359.168, 464.848,352.00, 456.00,352.00z M 264.00,176.00c0.00-61.856-50.16-112.00-112.00-112.00c-61.856,0.00-112.00,50.144-112.00,112.00s 50.144,112.00, 112.00,112.00C 213.84,288.00, 264.00,237.856, 264.00,176.00z
	 M 191.648,163.824c-1.616,3.824-3.696,7.152-6.304,9.984c-2.608,2.832-5.568,5.264-8.896,7.296c-3.328,2.032-6.72,3.84-10.192,5.456
	c-3.472,1.60-6.864,3.104-10.192,4.544c-3.328,1.424-6.32,2.96-8.944,4.592c-2.64,1.632-4.736,3.504-6.304,5.60
	c-1.568,2.096-2.352,4.576-2.352,7.456c0.00,1.92, 0.352,3.744, 1.04,5.472c 0.704,1.712, 1.76,3.20, 3.20,4.432
	c 1.424,1.216, 3.216,2.192, 5.344,2.88c 2.128,0.704, 4.64,1.04, 7.504,1.04c 3.664,0.00, 7.024-0.432, 10.096-1.328
	c 3.056-0.912, 5.76-1.888, 8.096-2.992c 2.336-1.088, 4.304-2.096, 5.904-3.024c 1.60-0.928, 2.768-1.376, 3.504-1.376
	s 1.312,0.192, 1.744,0.592c 0.416,0.40, 0.768,1.024, 0.992,1.904c 0.24,0.864, 0.384,1.968, 0.496,3.296
	c 0.096,1.344, 0.144,2.992, 0.144,4.928c0.00,1.728-0.032,3.184-0.096,4.336c-0.064,1.168-0.192,2.144-0.336,2.912
	c-0.176,0.768-0.368,1.392-0.592,1.856c-0.256,0.464-0.688,1.024-1.36,1.68c-0.672,0.672-2.032,1.504-4.096,2.48
	c-2.064,0.992-4.432,1.888-7.088,2.672c-2.672,0.80-5.536,1.424-8.592,1.888c-0.624,0.096-1.264,0.064-1.888,0.144l0.00,16.544 L 146.736,259.088 
	l0.00-16.544 l0.00,0.00c-2.896-0.384-5.696-0.96-8.416-1.744c-5.296-1.536-9.888-3.84-13.792-6.944s-7.008-7.008-9.296-11.68
	c-2.304-4.704-3.44-10.144-3.44-16.336c0.00-5.392, 0.80-10.032, 2.384-13.888c 1.60-3.856, 3.68-7.216, 6.256-10.048
	c 2.576-2.832, 5.472-5.248, 8.736-7.28c 3.264-2.048, 6.64-3.856, 10.096-5.456c 3.472-1.60, 6.832-3.104, 10.096-4.544
	s 6.176-2.976, 8.736-4.592c 2.576-1.648, 4.656-3.504, 6.256-5.60c 1.60-2.112, 2.40-4.624, 2.40-7.552c0.00-2.544-0.464-4.848-1.392-6.928
	c-0.944-2.064-2.288-3.792-4.048-5.20c-1.76-1.408-3.904-2.48-6.432-3.248c-2.544-0.768-5.392-1.152-8.608-1.152
	c-4.864,0.00-9.152,0.544-12.848,1.648c-3.696,1.104-6.88,2.32-9.552,3.664c-2.672,1.328-4.848,2.528-6.544,3.648
	c-1.696,1.088-3.008,1.648-3.952,1.648c-0.672,0.00-1.264-0.192-1.744-0.544c-0.512-0.368-0.912-0.992-1.20-1.856
	c-0.304-0.88-0.512-2.00-0.656-3.408s-0.208-3.136-0.208-5.20c0.00-3.072, 0.192-5.424, 0.544-7.056
	c 0.368-1.648, 0.992-2.896, 1.856-3.744c 0.864-0.864, 2.272-1.84, 4.24-2.976s 4.416-2.192, 7.344-3.216
	c 2.928-1.008, 6.32-1.888, 10.144-2.624c 3.824-0.72, 7.984-1.072, 12.448-1.072c 0.192,0.00, 0.368,0.032, 0.576,0.032l0.00-15.408 l 15.728,0.00 l0.00,17.472 
	c 0.752,0.192, 1.552,0.288, 2.288,0.496c 5.792,1.728, 10.864,4.32, 15.20,7.744c 4.336,3.424, 7.76,7.696, 10.304,12.832
	c 2.528,5.136, 3.776,11.088, 3.776,17.888C 194.032,155.488, 193.232,159.984, 191.648,163.824z M 249.152,96.00L 456.00,96.00 c 8.848,0.00, 16.00-7.152, 16.00-16.00
	c0.00-8.832-7.152-16.00-16.00-16.00L 211.248,64.00 C 225.904,72.112, 238.752,83.024, 249.152,96.00z" />
<glyph unicode="&#x5c;" d="M 214.875,374.161L 133.737,395.901C 126.275,397.903, 118.604,393.465, 116.602,386.004L 33.266,75.002
			c-2.002-7.475, 2.436-15.147, 9.911-17.163L 124.301,36.099c 7.461-2.002, 15.147,2.436, 17.149,9.897l 83.336,311.016
			C 226.774,364.473, 222.35,372.159, 214.875,374.161z M 140.82,97.806c-6.006-22.412-29.02-35.697-51.432-29.692s-35.697,29.02-29.692,51.432
			s 29.02,35.711, 51.432,29.692C 133.541,143.233, 146.826,120.205, 140.82,97.806z M 156.905,157.806l-81.124,21.74L 119.248,341.809l 81.138-21.754
			L 156.905,157.806z M 297.021,125.007c-11.605,0.00-20.998-9.407-20.998-20.998s 9.393-20.998, 20.998-20.998c 11.591,0.00, 20.998,9.407, 20.998,20.998S 308.612,125.007, 297.021,125.007z
			 M 183.251,310.171L 129.145,324.66L 125.533,311.137l 54.092-14.489L 183.251,310.171z M 172.36,269.602l 3.64,13.523L 121.908,297.614L 118.282,284.091
			L 172.36,269.602z M 105.473,128.114c-11.199,3.01-22.72-3.654-25.716-14.853c-3.01-11.213, 3.64-22.72, 14.853-25.716
			c 11.199-3.01, 22.72,3.64, 25.716,14.853C 123.321,113.597, 116.672,125.104, 105.473,128.114z M 451.01,320.992l-55.996,0.00 l0.00-13.999 l 55.996,0.00 L 451.01,320.992 z M 451.01,264.996l-55.996,0.00 l0.00-13.999 l 55.996,0.00 L 451.01,264.996 z M 451.01,292.994
			l-55.996,0.00 l0.00-13.999 l 55.996,0.00 L 451.01,292.994 z M 423.012,125.007c-11.605,0.00-20.998-9.407-20.998-20.998s 9.393-20.998, 20.998-20.998c 11.591,0.00, 20.998,9.407, 20.998,20.998S 434.603,125.007, 423.012,125.007z M 465.009,390.987
			l-83.994,0.00 c-7.741,0.00-13.999-6.258-13.999-13.999l0.00-321.977 c0.00-7.727, 6.258-13.999, 13.999-13.999l 83.994,0.00 c 7.727,0.00, 13.999,6.272, 13.999,13.999L 479.008,376.988 C 479.008,384.73, 472.722,390.987, 465.009,390.987z M 423.012,62.011
			c-23.196,0.00-41.997,18.815-41.997,41.997c0.00,23.196, 18.801,41.997, 41.997,41.997c 23.182,0.00, 41.997-18.801, 41.997-41.997C 465.009,80.826, 446.194,62.011, 423.012,62.011z M 465.009,167.004l-83.994,0.00 L 381.015,334.991 l 83.994,0.00 L 465.009,167.004 z
			 M 325.019,320.992l-55.996,0.00 l0.00-13.999 l 55.996,0.00 L 325.019,320.992 z M 325.019,264.996l-55.996,0.00 l0.00-13.999 l 55.996,0.00 L 325.019,264.996 z M 339.018,390.987l-83.994,0.00 c-7.741,0.00-13.999-6.258-13.999-13.999l0.00-321.977 c0.00-7.727, 6.258-13.999, 13.999-13.999l 83.994,0.00 c 7.727,0.00, 13.999,6.272, 13.999,13.999L 353.017,376.988 
			C 353.017,384.73, 346.731,390.987, 339.018,390.987z M 297.021,62.879c-23.196,0.00-41.997,18.815-41.997,41.997c0.00,23.196, 18.801,41.997, 41.997,41.997c 23.182,0.00, 41.997-18.801, 41.997-41.997
			C 339.018,81.694, 320.203,62.879, 297.021,62.879z M 339.018,167.004l-83.994,0.00 L 255.024,334.991 l 83.994,0.00 L 339.018,167.004 z M 325.019,292.994l-55.996,0.00 l0.00-13.999 l 55.996,0.00 L 325.019,292.994 z M 111.03,257.059l 54.078-14.489l 3.64,13.523
			l-54.092,14.489L 111.03,257.059z" />
<glyph unicode="&#x5d;" d="M 80.00-16.00L 80.00,384.00 l 66.672,64.00l 202.672,0.00 L 416.00,384.00l0.00-400.00 L 80.00-16.00 z M 96.00,0.00l 304.00,0.00 L 400.00,368.00 L 96.00,368.00 L 96.00,0.00 z M 112.00,176.00l 272.00,0.00 l0.00-160.00 L 112.00,16.00 L 112.00,176.00 z M 208.00,112.00l0.00-16.00 l 16.00,0.00 
	l 48.00,0.00 l 16.00,0.00 l0.00,16.00 l0.00,32.00 l-16.00,0.00 l0.00-32.00 l-48.00,0.00 l0.00,32.00 l-16.00,0.00 L 208.00,112.00 z M 112.00,352.00l 272.00,0.00 l0.00-160.00 L 112.00,192.00 L 112.00,352.00 z M 208.00,272.00l 16.00,0.00 l 48.00,0.00 l 16.00,0.00 l0.00,16.00 l0.00,32.00 l-16.00,0.00 l0.00-32.00 l-48.00,0.00 l0.00,32.00 l-16.00,0.00 L 208.00,272.00 z" />
<glyph unicode="&#x5e;" d="M 406.261,432.00L 105.739,432.00 C 95.352,432.00, 86.957,423.604, 86.957,413.217l0.00-394.435 c0.00-10.368, 8.396-18.783, 18.783-18.783l 300.522,0.00 c 10.368,0.00, 18.783,8.415, 18.783,18.783L 425.043,413.217 
			C 425.043,423.604, 416.629,432.00, 406.261,432.00z M 124.522,244.174l 37.565,0.00 l0.00-37.565 L 124.522,206.609 L 124.522,244.174 z M 124.522,187.826l 37.565,0.00 l0.00-37.565 L 124.522,150.261 L 124.522,187.826 z M 124.522,131.478l 37.565,0.00 l0.00-37.565 L 124.522,93.913 L 124.522,131.478 z M 218.435,37.565L 124.522,37.565 l0.00,37.565 l 93.913,0.00 L 218.435,37.565 z M 218.435,93.913l-37.565,0.00 l0.00,37.565 l 37.565,0.00 L 218.435,93.913 z M 218.435,150.261l-37.565,0.00 l0.00,37.565 l 37.565,0.00 
			L 218.435,150.261 z M 218.435,206.609l-37.565,0.00 l0.00,37.565 l 37.565,0.00 L 218.435,206.609 z M 274.783,37.565l-37.565,0.00 l0.00,37.565 l 37.565,0.00 L 274.783,37.565 z M 274.783,93.913l-37.565,0.00 l0.00,37.565 l 37.565,0.00 L 274.783,93.913 z M 274.783,150.261l-37.565,0.00 l0.00,37.565 l 37.565,0.00 L 274.783,150.261 z M 274.783,206.609l-37.565,0.00 l0.00,37.565 l 37.565,0.00 L 274.783,206.609 z M 331.13,37.565l-37.565,0.00 l0.00,37.565 l 37.565,0.00 L 331.13,37.565 z M 331.13,93.913
			l-37.565,0.00 l0.00,37.565 l 37.565,0.00 L 331.13,93.913 z M 331.13,150.261l-37.565,0.00 l0.00,37.565 l 37.565,0.00 L 331.13,150.261 z M 331.13,206.609l-37.565,0.00 l0.00,37.565 l 37.565,0.00 L 331.13,206.609 z M 387.478,37.565l-37.565,0.00 l0.00,93.913 l 37.565,0.00 L 387.478,37.565 z M 387.478,150.261l-37.565,0.00 l0.00,37.565 l 37.565,0.00 L 387.478,150.261 z M 387.478,206.609l-37.565,0.00 l0.00,37.565 l 37.565,0.00 L 387.478,206.609 z M 387.478,281.739L 124.522,281.739 L 124.522,394.435 l 262.957,0.00 L 387.478,281.739 z
			" />
<glyph unicode="&#x5f;" d="M 54.80,256.752c0.00,0.00, 386.192,0.00, 386.768,0.00c 9.328,4.08, 8.912,12.832, 0.176,18.64
			C 432.992,281.232, 247.84,414.88, 247.84,414.88S 64.128,281.232, 54.80,275.392C 45.488,269.584, 44.896,260.832, 54.80,256.752z M 247.84,348.88
			c 15.44,0.00, 27.968-12.512, 27.968-27.952s-12.528-27.968-27.968-27.968s-27.952,12.528-27.952,27.968S 232.40,348.88, 247.84,348.88z M 64.432,49.088
			l 367.488,0.00 l0.00,15.632 L 64.432,64.72 L 64.432,49.088 z M 144.00,81.024l0.00,142.448 l 15.648,0.00 L 159.648,241.12 L 79.76,241.12 l0.00-16.048 l 15.648,0.00 l0.00-144.032 L 144.00,81.04 z M 272.48,81.024L 272.48,224.48 l 15.648,0.00 l0.00,15.648 l-79.872,0.00 
			l0.00-15.04 l 15.632,0.00 l0.00-144.032 L 272.48,81.056 z M 48.48,17.12l 399.408,0.00 l0.00,14.624 L 48.48,31.744 L 48.48,17.12 z M 399.968,81.024L 399.968,224.48 l 15.648,0.00 l0.00,15.648 l-79.888,0.00 l0.00-15.04 l 15.664,0.00 l0.00-144.032 
			L 399.968,81.056 z" />
<glyph unicode="&#x60;" d="M 360.533,373.333l-205.333,0.00 L 32.00,205.333l0.00-93.333 c0.00-20.608, 16.725-37.333, 37.333-37.333l 373.333,0.00 c 20.608,0.00, 37.333,16.725, 37.333,37.333l0.00,93.333 L 360.533,373.333z
			 M 376.68,204.904l-38.304-56.037l-160.309,0.373l-41.104,55.888l-76.272,0.448l 105.691,148.867L 349.333,354.443 l 104.533-148.867L 376.68,204.904z M 281.667,317.333
			c0.00,10.304-6.029,18.667-16.333,18.667c-10.323,0.00-17.509-8.363-17.509-18.667l0.00-73.509 L 202.333,242.667l 63.00-71.157L 327.157,242.667l-45.509,1.157L 281.648,317.333 z" />
<glyph unicode="&#x61;" d="M 360.533,373.333l-205.333,0.00 L 32.00,205.333l0.00-93.333 c0.00-20.608, 16.725-37.333, 37.333-37.333l 373.333,0.00 c 20.608,0.00, 37.333,16.725, 37.333,37.333l0.00,93.333 L 360.533,373.333z
			 M 376.68,204.923l-38.304-56.056l-160.328,0.373l-41.085,55.907l-76.272,0.429l 105.691,148.867L 349.333,354.443 l 104.533-148.867L 376.68,204.923z M 202.333,261.333
			l 45.509-1.157L 247.843,186.667 c0.00-10.323, 7.187-18.667, 17.509-18.667c 10.304,0.00, 16.333,8.344, 16.333,18.667l0.00,73.509 L 327.157,261.333L 265.333,332.491L 202.333,261.333z" />
<glyph unicode="&#x62;" d="M 360.533,374.667l-205.333,0.00 L 32.00,188.00l0.00-93.333 c0.00-20.608, 16.725-37.333, 37.333-37.333l 373.333,0.00 c 20.608,0.00, 37.333,16.725, 37.333,37.333l0.00,93.333 L 360.533,374.667z
			 M 376.68,187.571l-38.304-74.704l-160.328,0.373l-41.085,74.573l-76.272,0.429l 105.691,167.533L 349.333,355.776 l 104.533-167.533L 376.68,187.571z M 181.333,132.00l 149.333,0.00 l0.00,18.667 l-149.333,0.00 L 181.333,132.00 z
			 M 178.216,337.389L 95.784,206.667l 325.099,0.00 l-84.00,130.723L 178.216,337.389 z M 162.667,169.333l 186.667,0.00 l0.00,18.667 L 162.667,188.00 L 162.667,169.333 z" />
<glyph unicode="&#x63;" d="M 360.533,373.333l-205.333,0.00 L 32.00,205.333l0.00-93.333 c0.00-20.608, 16.725-37.333, 37.333-37.333l 373.333,0.00 c 20.608,0.00, 37.333,16.725, 37.333,37.333l0.00,93.333 L 360.533,373.333z
			 M 376.68,204.904l-38.304-56.037l-160.309,0.373l-41.104,55.888l-76.272,0.448L 166.40,354.424L 349.333,354.424 l 104.533-148.867L 376.68,204.904z" />
<glyph unicode="&#x64;" d="M 459.511,291.203 L 52.967,291.203 C 32.335,291.203 31.305,281.156 32.426,268.882 L 50.922,66.995 C 52.043,54.721 54.949,44.675 75.554,44.675 L 436.924,44.675 C 457.935,44.675 460.435,54.721 461.555,66.995 L 480.056,268.882 C 481.177,281.156 480.147,291.203 459.511,291.203 Z M 444.593,340.509 C 442.106,350.37 429.913,358.438 417.488,358.438 L 264.771,358.438 C 252.342,358.438 234.988,365.555 226.184,374.251 L 212.839,387.446 C 204.042,396.145 186.681,403.26 174.256,403.26 L 101.287,403.261 C 88.866,403.261 77.58,393.239 76.211,380.986 L 69.667,322.579 L 449.11,322.579 L 444.593,340.509 Z" />
<glyph unicode="&#x65;" d="M 365.469-0.656L 114.531-0.656 c-15.405,0.00-27.882,12.449-27.882,27.826L 86.649,363.106 c0.00,15.363, 12.477,27.812, 27.882,27.812l 69.705,0.00 l0.00-28.983 
	L 128.472,361.935 c-7.695,0.00-13.941-6.218-13.941-13.913l0.00-306.939 c0.00-7.709, 6.246-13.913, 13.941-13.913l 223.056,0.00 c 7.709,0.00, 13.941,6.204, 13.941,13.913L 365.469,348.022 c0.00,7.695-6.232,13.913-13.941,13.913l-55.764,0.00 
	L 295.764,390.919 l 69.705,0.00 c 15.391,0.00, 27.882-12.463, 27.882-27.812l0.00-335.936 C 393.351,11.793, 380.86-0.656, 365.469-0.656z M 184.236,278.471l 153.351,0.00 l0.00-13.913 L 184.236,264.558 L 184.236,278.471 z M 184.236,236.731l 153.351,0.00 l0.00-13.913 
	L 184.236,222.818 L 184.236,236.731 z M 184.236,194.978l 153.351,0.00 l0.00-13.913 L 184.236,181.065 L 184.236,194.978 z M 184.236,153.239l 153.351,0.00 L 337.587,139.326 L 184.236,139.326 L 184.236,153.239 z M 337.587,55.875L 184.236,55.875 L 184.236,69.76 l 153.351,0.00 L 337.587,55.875 z M 184.236,111.499l 153.351,0.00 l0.00-13.913 L 184.236,97.586 
	L 184.236,111.499 z M 142.413,278.749l 13.941,0.00 l0.00-13.913 L 142.413,264.836 L 142.413,278.749 z M 142.413,237.01l 13.941,0.00 l0.00-13.913 L 142.413,223.097 L 142.413,237.01 z M 142.413,195.285l 13.941,0.00 l0.00-13.913 L 142.413,181.372 L 142.413,195.285 z M 142.413,153.545l 13.941,0.00 l0.00-13.913 L 142.413,139.632 L 142.413,153.545 z
	 M 156.354,56.14L 142.413,56.14 l0.00,13.913 l 13.941,0.00 L 156.354,56.14 z M 142.413,111.792l 13.941,0.00 l0.00-13.913 L 142.413,97.879 L 142.413,111.792 z M 323.646,347.172c 7.709,0.00, 13.941-6.232, 13.941-13.927c0.00-7.681,0.00-26.948,0.00-26.948L 142.413,306.297 
	c0.00,0.00,0.00,19.266,0.00,26.948c0.00,7.695, 6.232,13.927, 13.941,13.927l 41.823,0.00 c0.00,0.00, 0.167,19.782, 0.167,42.395c0.00,23.477, 18.123,43.106, 41.656,43.106
	s 42.283-20.633, 42.283-43.245C 282.283,365.072, 281.823,347.172, 281.823,347.172L 323.646,347.172 z M 240.00,390.919c-7.709,0.00-13.941-6.218-13.941-13.899c0.00-7.695, 6.232-13.913, 13.941-13.913
	s 13.941,6.218, 13.941,13.913C 253.941,384.701, 247.709,390.919, 240.00,390.919z" />
<glyph unicode="&#x66;" d="M 316.907,215.966 L 480.00,103.481 L 480.00,362.435 Z M 32.00,362.435 L 32.00,103.481 L 195.09,215.982 Z M 256.00,161.27 L 217.062,196.231 L 32.00,84.00 L 480.00,84.00 L 294.933,196.231 Z M 466.56,364.00 L 45.44,364.00 L 256.00,205.69 Z" />
<glyph unicode="&#x67;" d="M 368.00,94.08L 76.80,94.08 l0.00,201.60 l 58.128,0.00 c0.00,0.00, 15.433,20.071, 48.608,44.80L 54.40,340.48 c-12.365,0.00-22.40-10.035-22.40-22.40l0.00-246.40 c0.00-12.387, 10.035-22.40, 22.40-22.40l 336.00,0.00 c 12.387,0.00, 22.40,10.013, 22.40,22.40l0.00,83.911 
		l-44.80-36.848L 368.00,94.08 z M 331.309,249.76l0.00-79.52 L 480.00,286.743L 331.309,398.72l0.00-70.112 C 150.72,328.585, 150.72,150.08, 150.72,150.08C 201.837,234.035, 233.287,249.76, 331.309,249.76z" />
<glyph unicode="&#x68;" d="M 256.00,448.00C 132.288,448.00, 32.00,347.712, 32.00,224.00s 100.288-224.00, 224.00-224.00s 224.00,100.288, 224.00,224.00S 379.712,448.00, 256.00,448.00z M 256.00,28.00
		C 147.752,28.00, 60.00,115.752, 60.00,224.00S 147.752,420.00, 256.00,420.00s 196.00-87.752, 196.00-196.00S 364.248,28.00, 256.00,28.00zM 144.00,112.00l 148.201,69.274L 368.00,336.00l-151.598-72.402L 144.00,112.00z M 256.00,252.00c 15.464,0.00, 28.00-12.536, 28.00-28.00c0.00-15.464-12.536-28.00-28.00-28.00
		c-15.464,0.00-28.00,12.536-28.00,28.00C 228.00,239.464, 240.536,252.00, 256.00,252.00z" />
<glyph unicode="&#x69;" d="M 326.00,56.00c 7.742,0.00, 14.00,6.258, 14.00,14.00L 340.00,266.00 c0.00,7.742-6.258,14.00-14.00,14.00s-14.00-6.258-14.00-14.00l0.00-196.00 C 312.00,62.258, 318.258,56.00, 326.00,56.00zM 186.00,56.00c 7.728,0.00, 14.00,6.258, 14.00,14.00L 200.00,266.00 c0.00,7.742-6.272,14.00-14.00,14.00s-14.00-6.258-14.00-14.00l0.00-196.00 C 172.00,62.258, 178.272,56.00, 186.00,56.00zM 438.00,364.00l-56.00,0.00 L 382.00,392.00 c0.00,30.926-25.074,56.00-56.00,56.00L 186.00,448.00 C 155.074,448.00, 130.00,422.926, 130.00,392.00l0.00-28.00 L 74.00,364.00 L 32.00,322.00c0.00-7.742, 6.272-14.00, 14.00-14.00l 42.00,0.00 l0.00-280.00 c0.00-15.456, 12.544-28.00, 28.00-28.00l 280.00,0.00 
		c 15.456,0.00, 28.00,12.544, 28.00,28.00L 424.00,308.00 l 42.00,0.00 c 7.742,0.00, 14.00,6.258, 14.00,14.00L 438.00,364.00z M 172.00,392.00c0.00,15.456, 12.544,28.00, 28.00,28.00l 112.00,0.00 c 15.456,0.00, 28.00-12.544, 28.00-28.00l0.00-28.00 L 172.00,364.00 L 172.00,392.00 z M 396.00,42.00
		c0.00-7.742-6.258-14.00-14.00-14.00L 130.00,28.00 c-7.728,0.00-14.00,6.258-14.00,14.00L 116.00,308.00 l 280.00,0.00 L 396.00,42.00 zM 256.00,56.00c 7.742,0.00, 14.00,6.258, 14.00,14.00L 270.00,266.00 c0.00,7.742-6.258,14.00-14.00,14.00s-14.00-6.258-14.00-14.00l0.00-196.00 C 242.00,62.258, 248.258,56.00, 256.00,56.00z" />
<glyph unicode="&#x6a;" d="M 224.836,433.888 C 109.265,433.888 15.584,339.901 15.586,223.969 C 15.586,108.03 109.265,14.049 224.837,14.049 C 273.437,14.049 318.161,30.684 353.685,58.564 L 317.701,97.073 C 291.696,77.884 259.596,66.528 224.836,66.528 C 138.16,66.528 67.896,137.012 67.896,223.968 C 67.896,310.924 138.161,381.408 224.836,381.408 C 309.756,381.408 378.876,313.732 381.64,229.212 L 308.536,229.212 L 402.70,124.252 L 496.864,229.212 L 433.956,229.212 C 431.168,342.723 338.644,433.888 224.836,433.888 Z" />
<glyph unicode="&#x6b;" d="M 272.00,416.00C 157.125,416.00, 64.00,322.875, 64.00,208.00c0.00-114.876, 93.125-208.00, 208.00-208.00c 114.876,0.00, 208.00,93.124, 208.00,208.00
		C 480.00,322.875, 386.876,416.00, 272.00,416.00z M 272.00,27.733c-99.558,0.00-180.267,80.708-180.267,180.267S 172.442,388.267, 272.00,388.267s 180.267-80.708, 180.267-180.267
		S 371.558,27.733, 272.00,27.733zM 285.867,247.225L 285.867,360.533 l-27.733,0.00 l0.00-113.31 c-16.155-5.711-27.733-21.112-27.733-39.225c0.00-22.975, 18.625-41.60, 41.60-41.60c 18.113,0.00, 33.51,11.578, 39.225,27.733
		L 396.80,194.133 l0.00,27.733 l-85.575,0.00 C 307.046,233.684, 297.684,243.044, 285.867,247.225z" />
<glyph unicode="&#x6c;" d="M 228.00,336.00 L 228.00,224.00 L 144.00,224.00 L 144.00,196.00 L 256.00,196.00 L 256.00,336.00 Z M 228.00,420.00 C 119.752,420.00 32.00,332.248 32.00,224.00 C 32.00,115.752 119.752,28.00 228.00,28.00 C 237.508,28.00 246.854,28.691 256.00,29.999 L 256.00,58.336 C 246.893,56.808 237.541,56.00 228.00,56.00 C 135.216,56.00 60.00,131.216 60.00,224.00 C 60.00,316.784 135.216,392.00 228.00,392.00 C 320.784,392.00 396.00,316.784 396.00,224.00 L 340.00,224.00 L 410.00,140.00 L 480.00,224.00 L 424.00,224.00 C 424.00,332.248 336.248,420.00 228.00,420.00 Z" />
<glyph unicode="&#x6d;" d="M 228.00,168.00 L 228.00,84.00 L 172.00,84.00 L 256.00,0.00 L 340.00,84.00 L 284.00,84.00 L 284.00,168.00 Z M 284.00,280.00 L 284.00,364.00 L 340.00,364.00 L 256.00,448.00 L 172.00,364.00 L 228.00,364.00 L 228.00,280.00 Z M 200.00,252.00 L 116.00,252.00 L 116.00,308.00 L 32.00,224.00 L 116.00,140.00 L 116.00,196.00 L 200.00,196.00 Z M 312.00,196.00 L 396.00,196.00 L 396.00,140.00 L 480.00,224.00 L 396.00,308.00 L 396.00,252.00 L 312.00,252.00 Z" />
<glyph unicode="&#x6e;" d="M 415.796,103.796 L 351.592,168.00 L 312.00,128.408 L 376.204,64.204 L 312.00,0.00 L 480.00,0.00 L 480.00,168.00 Z M 200.00,448.00 L 32.00,448.00 L 32.00,280.00 L 96.204,344.204 L 159.806,280.658 L 199.398,320.25 L 135.796,383.796 Z M 200.00,128.408 L 160.408,168.00 L 96.204,103.796 L 32.00,168.00 L 32.00,0.00 L 200.00,0.00 L 135.796,64.204 Z M 480.00,448.00 L 312.00,448.00 L 376.204,383.796 L 312.602,320.25 L 352.194,280.658 L 415.796,344.204 L 480.00,280.00 Z" />
<glyph unicode="&#x6f;" d="M 256.00,448.00C 132.288,448.00, 32.00,347.712, 32.00,224.00s 100.288-224.00, 224.00-224.00s 224.00,100.288, 224.00,224.00S 379.712,448.00, 256.00,448.00z M 256.00,56.00
		c-92.784,0.00-168.00,75.216-168.00,168.00c0.00,92.784, 75.216,168.00, 168.00,168.00c 92.784,0.00, 168.00-75.216, 168.00-168.00C 424.00,131.216, 348.784,56.00, 256.00,56.00zM 228.00,336.00A28.00,28.00 5940.00 1,0 284.00,336A28.00,28.00 5940.00 1,0 228.00,336zM 312.00,308.00A28.00,28.00 5940.00 1,0 368.00,308A28.00,28.00 5940.00 1,0 312.00,308zM 144.00,308.00A28.00,28.00 5940.00 1,0 200.00,308A28.00,28.00 5940.00 1,0 144.00,308zM 228.00,140.00L 228.00,112.00L 284.00,112.00L 284.00,140.00L 256.00,280.00 	z" />
<glyph unicode="&#x70;" d="M 436.777,254.139 L 74.719,254.139 C 58.054,254.139 44.548,240.633 44.548,223.968 C 44.548,207.303 58.054,193.797 74.719,193.797 L 436.777,193.797 C 453.442,193.797 466.948,207.303 466.948,223.968 C 466.948,240.633 453.443,254.139 436.777,254.139 Z M 74.719,314.482 L 436.777,314.482 C 453.442,314.482 466.948,327.989 466.948,344.654 C 466.948,361.319 453.442,374.825 436.777,374.825 L 74.719,374.825 C 58.054,374.825 44.548,361.319 44.548,344.654 C 44.548,327.989 58.054,314.482 74.719,314.482 Z M 436.777,133.454 L 74.719,133.454 C 58.054,133.454 44.548,119.947 44.548,103.282 C 44.548,86.617 58.054,73.111 74.719,73.111 L 436.777,73.111 C 453.442,73.111 466.948,86.617 466.948,103.282 C 466.948,119.947 453.443,133.454 436.777,133.454 Z" />
<glyph unicode="&#x71;" d="M 480.00,280.811 L 308.88,280.811 L 256.00,443.557 L 203.121,280.811 L 32.00,280.811 L 170.44,180.229 L 117.56,17.483 L 256.00,118.065 L 394.439,17.484 L 341.56,180.229 Z" />
<glyph unicode="&#x72;" d="M 480.00,280.811 L 308.88,280.811 L 256.00,443.557 L 203.12,280.811 L 32.00,280.811 L 170.44,180.228 L 117.56,17.483 L 256.00,118.065 L 394.439,17.483 L 341.559,180.228 L 480.00,280.811 Z M 354.494,72.462 L 256.00,144.023 L 157.505,72.462 L 195.126,188.248 L 96.631,259.811 L 218.378,259.811 L 256.00,375.60 L 293.622,259.811 L 415.369,259.811 L 316.874,188.248 L 354.494,72.462 Z" />
<glyph unicode="&#x73;" d="M 514.274,337.267 C 507.837,400.616 454.343,450.043 389.304,450.043 C 337.173,450.043 292.478,418.291 273.46,373.08 C 254.443,418.291 209.749,450.043 157.623,450.043 C 92.578,450.043 39.08,400.616 32.647,337.267 C 32.217,333.045 32.00,328.757 32.00,324.42 C 32.00,171.788 219.316,99.751 273.46-2.049 L 273.46-2.049 C 327.605,99.746 514.92,171.784 514.92,324.42 C 514.921,328.757 514.704,333.045 514.274,337.267 Z" horiz-adv-x="546.9208984375" />
<glyph unicode="&#x74;" d="M 210.801,173.075 C 332.734,173.075 423.062,162.264 486.641,49.886 C 486.641,49.886 435.441,299.066 210.801,299.066 L 210.801,398.046 L 25.841,232.798 L 210.801,61.515 L 210.801,173.075 Z" />
<glyph unicode="&#x75;" d="M 301.681,173.075 L 301.681,61.515 L 486.641,232.798 L 301.681,398.046 L 301.681,299.066 C 77.041,299.066 25.841,49.886 25.841,49.886 C 89.42,162.264 179.748,173.075 301.681,173.075 Z" />
<glyph unicode="&#x76;" d="M 374.328,125.246 C 319.61,145.188 302.123,162.007 302.123,198.027 C 302.123,219.647 318.83,212.582 326.164,252.181 C 329.208,268.602 343.965,252.444 346.793,289.945 C 346.793,304.889 338.736,308.602 338.736,308.602 C 338.736,308.602 342.829,330.715 344.434,347.736 C 346.419,368.943 332.182,423.729 256.241,423.729 C 180.297,423.729 166.053,368.943 168.048,347.736 C 169.649,330.715 173.742,308.602 173.742,308.602 C 173.742,308.602 165.689,304.888 165.689,289.945 C 168.505,252.443 183.262,268.602 186.307,252.181 C 193.649,212.582 210.348,219.647 210.348,198.027 C 210.348,162.006 192.868,145.187 138.152,125.245 C 83.259,105.235 47.601,84.841 47.601,70.934 C 47.601,57.038 47.601,24.205 47.601,24.205 L 256.241,24.205 L 464.881,24.205 C 464.881,24.205 464.881,57.038 464.881,70.934 C 464.881,84.841 429.219,105.235 374.328,125.246 Z" />
<glyph unicode="&#x77;" d="M 309.482,124.338 C 253.678,144.459 235.848,161.437 235.848,197.788 C 235.848,219.607 252.879,212.477 260.363,252.44 C 263.468,269.013 278.518,252.706 281.395,290.552 C 281.395,305.63 273.18,309.381 273.18,309.381 C 273.18,309.381 277.359,331.697 278.99,348.875 C 281.019,370.277 266.495,425.567 189.04,425.567 C 111.588,425.567 97.06,370.277 99.094,348.875 C 100.726,331.697 104.902,309.381 104.902,309.381 C 104.902,309.381 96.684,305.628 96.684,290.552 C 99.568,252.706 114.614,269.013 117.715,252.44 C 125.206,212.477 142.236,219.607 142.236,197.788 C 142.236,161.436 124.404,144.458 68.596,124.337 C 61.879,121.915 45.859,118.149 32.241,112.272 L 32.241,22.368 L 390.641,22.368 C 390.641,22.368 390.641,55.502 390.641,69.527 C 390.641,83.561 365.465,104.143 309.482,124.338 Z M 413.041,246.368 L 413.041,313.568 L 368.241,313.568 L 368.241,246.368 L 301.041,246.368 L 301.041,201.568 L 368.241,201.568 L 368.241,134.368 L 413.041,134.368 L 413.041,201.568 L 480.241,201.568 L 480.241,246.368 L 413.041,246.368 Z" />
<glyph unicode="&#x78;" d="M 480.241,33.568 C 480.241,33.568 479.355,115.503 474.176,123.997 C 466.47,136.646 448.515,145.338 415.178,158.791 C 381.952,172.209 371.329,183.522 371.329,207.763 C 371.329,222.31 381.472,217.552 385.934,244.191 C 387.778,255.248 396.739,244.373 398.454,269.602 C 398.454,279.66 393.564,282.159 393.564,282.159 C 393.564,282.159 396.049,297.034 397.02,308.486 C 398.226,322.759 389.575,359.615 343.463,359.615 C 297.34,359.615 288.695,322.76 289.901,308.486 C 290.874,297.034 293.349,282.159 293.349,282.159 C 293.349,282.159 288.466,279.66 288.466,269.602 C 290.181,244.374 299.134,255.248 300.988,244.191 C 305.44,217.552 315.59,222.309 315.59,207.763 C 315.59,191.281 310.655,180.778 297.059,171.517 C 369.649,136.422 379.379,129.265 379.379,97.891 L 379.379,33.568 L 480.241,33.568 Z M 261.246,146.607 C 216.936,164.503 202.778,179.588 202.778,211.896 C 202.778,231.294 216.306,224.959 222.245,260.477 C 224.706,275.212 236.658,260.718 238.94,294.357 C 238.94,307.762 232.422,311.094 232.422,311.094 C 232.422,311.094 235.737,330.932 237.031,346.199 C 238.641,365.225 227.109,414.368 165.614,414.368 C 104.129,414.368 92.586,365.225 94.207,346.199 C 95.502,330.932 98.808,311.094 98.808,311.094 C 98.808,311.094 92.288,307.762 92.288,294.357 C 94.579,260.719 106.525,275.212 108.993,260.477 C 114.933,224.959 128.46,231.293 128.46,211.896 C 128.46,179.588 114.296,164.503 69.993,146.607 C 56.493,141.158 32.239,132.712 32.239,112.399 L 32.239,33.568 L 343.459,33.568 C 343.459,33.568 343.459,80.202 343.459,92.676 C 343.46,111.205 305.685,128.662 261.246,146.607 Z" />
<glyph unicode="&#x79;" d="M 66.946,345.315 C 58.653,348.632 52.084,343.277 56.993,336.145 C 268.516,28.815 196.122,342.043 374.935,192.146 L 334.274,32.282 L 379.999,32.282 L 463.017,358.671 L 421.113,373.72 C 220.689,520.279 325.359,241.87 66.946,345.315 Z" />
<glyph unicode="&#x7a;" d="M 423.333,336.099 C 198.571,246.125 289.611,488.279 115.287,360.805 L 78.839,347.716 L 151.047,63.831 L 190.817,63.831 L 155.451,202.877 C 310.979,333.253 248.012,60.815 431.99,328.124 C 436.259,334.327 430.546,338.984 423.333,336.099 Z" />
<glyph unicode="&#x7b;" d="M 448.00,179.899c0.00,27.719-22.778,51.637-55.691,62.732c-3.309-50.424-44.324-93.798-103.36-116.077
		c 10.966-6.508, 23.964-11.329, 38.223-13.892c 10.299-24.066, 26.59-47.178, 46.569-62.339c-10.806,21.21-11.436,42.418-7.647,61.086
		C 412.50,116.609, 448.00,145.292, 448.00,179.899zM 364.80,249.233c0.00,61.266-74.50,110.933-166.40,110.933C 106.50,360.166, 32.00,310.499, 32.00,249.233c0.00-45.619, 41.309-84.799, 100.344-101.841
		c 9.239-22.849, 14.446-53.009-0.92-83.171c 23.352,17.722, 41.67,46.301, 51.26,74.575C 187.859,138.472, 193.099,138.299, 198.40,138.299
		C 290.30,138.299, 364.80,187.966, 364.80,249.233z" />
<glyph unicode="&#x7c;" d="M 255.994,440.968C 132.28,440.968, 32.001,365.246, 32.001,271.849c0.00-72.967, 61.207-135.16, 146.968-158.869
	c 1.258-7.091, 2.844-17.19, 2.844-23.439c0.00-29.422-11.259-57.328-31.315-82.508c 31.014,13.062, 74.791,55.036, 101.914,95.753
	c 1.196-0.014, 2.388-0.074, 3.583-0.074c 123.725,0.00, 224.006,75.722, 224.006,169.137C 480.002,365.246, 379.721,440.968, 255.994,440.968z" />
</font>
</defs>
</svg>
